<?xml version="1.0" encoding="UTF-8"?>
<svg id="Calque_1" xmlns="http://www.w3.org/2000/svg" viewBox="0 0 432 432">
  <defs>
    <style>
      .cls-1 {
        fill: #1d1d1b;
      }

      .cls-2 {
        fill: #fecc33;
      }

      .cls-3 {
        fill: #fff;
      }
    </style>
  </defs>
  <rect class="cls-1" x="18" y="18" width="396" height="396" rx="198" ry="198"/>
  <circle class="cls-2" cx="327.86" cy="222.11" r="17.67"/>
  <g>
    <g>
      <g>
        <path class="cls-3" d="M229.89,328.56c-16.35,0-29.65-13.3-29.65-29.65v-18.39s15.52,0,15.52,0v18.64c0,7.79,6.34,14.75,14.13,14.75v14.65Z"/>
        <path class="cls-3" d="M157.98,252.24c-16.35,0-29.65-13.3-29.65-29.65,0-16.35,13.3-29.65,29.65-29.65h6.16s0,14.28,0,14.28h-6.16c-8.78,0-14.13,7.58-14.13,15.37,0,8.8,6.34,15,14.13,15s14.13-6.07,14.13-15v-42.4s15.52,0,15.52,0v42.4c0,16.35-13.3,29.65-29.65,29.65Z"/>
        <path class="cls-3" d="M161.39,328.7c16.35,0,29.65-13.3,29.65-29.65,0-16.35-13.3-29.65-29.65-29.65h-6.16s0,14.28,0,14.28h6.16c8.78,0,14.13,7.58,14.13,15.37,0,8.8-6.34,15-14.13,15-7.79,0-14.13-6.07-14.13-15v-42.4s-15.52,0-15.52,0v42.4c0,16.35,13.3,29.65,29.65,29.65Z"/>
        <path class="cls-3" d="M264.88,328.7c16.35,0,29.65-13.3,29.65-29.65,0-16.35-13.3-29.65-29.65-29.65h-6.16s0,14.28,0,14.28h6.16c8.78,0,14.13,7.58,14.13,15.37,0,8.8-6.34,15-14.13,15s-14.13-6.07-14.13-15v-42.4s-15.52,0-15.52,0v42.4c0,16.35,13.3,29.65,29.65,29.65Z"/>
        <path class="cls-3" d="M229.89,252.24c-16.35,0-29.65-13.3-29.65-29.65v-17.75s15.52,0,15.52,0v18c0,7.79,6.34,14.75,14.13,14.75v14.65Z"/>
        <path class="cls-3" d="M264.86,251.81c-16.31,0-29.58-13.27-29.58-29.58s13.27-29.58,29.58-29.58c16.31,0,29.59,13.27,29.59,29.58s-13.27,29.58-29.59,29.58ZM264.86,207.29c-7.75,0-14.06,6.1-14.06,14.93s6.31,14.93,14.06,14.93,14.06-6.15,14.06-14.93c0-9.48-6.31-14.93-14.06-14.93Z"/>
        <path class="cls-3" d="M264.91,184.09c-14.95,0-27.11-12.16-27.11-27.11v-40.85s15.52,0,15.52,0v41.47c0,6.39,5.2,11.83,11.59,11.83,6.39,0,11.59-5.45,11.59-11.83v-41.17s15.52,0,15.52,0v40.55c0,14.95-12.16,27.11-27.11,27.11Z"/>
        <path class="cls-3" d="M213.82,145.73v-15.3s14.12,0,14.12,0v-14.37s-14.12,0-14.12,0v-16.19s-15.52,0-15.52,0v45.24c0,16.35,13.3,29.65,29.65,29.65v-15.03c-7.79,0-14.13-6.21-14.13-14Z"/>
      </g>
      <rect class="cls-3" x="200.12" y="180.26" width="15.96" height="15.96"/>
      <rect class="cls-3" x="200.12" y="256.56" width="15.96" height="15.96"/>
    </g>
    <path class="cls-3" d="M159.76,175.47c-16.41,0-29.77-12.87-29.77-28.68h15.32c0,7.14,6.48,13.56,14.45,13.56,7.97,0,14.45-6.42,14.45-13.56,0-7.14-6.48-12.95-14.45-12.95l.4-14.2c16.41,0,29.36,10.6,29.36,27.76,0,15.82-13.35,28.07-29.76,28.07Z"/>
    <path class="cls-3" d="M159.69,110.09c4.84,0,8.12,2.49,10.39,5.74h14.91c-2.46-12.24-12.2-20.25-25.3-20.25-15.37,0-27.88,11.66-27.88,26.75,0,16.09,12.51,25.73,27.88,25.73v-14.1c-6.93,0-12.56-5.22-12.56-11.63s4.83-12.24,12.56-12.24Z"/>
  </g>
</svg>