<svg width="117" height="29" viewBox="0 0 117 29" fill="none" xmlns="http://www.w3.org/2000/svg">
<path d="M5.88 22.788C5 22.788 4.232 22.66 3.576 22.404C2.92 22.132 2.368 21.78 1.92 21.348C1.488 20.916 1.176 20.444 0.984 19.932L2.664 19.236C2.936 19.78 3.344 20.22 3.888 20.556C4.432 20.892 5.032 21.06 5.688 21.06C6.44 21.06 7.072 20.916 7.584 20.628C8.096 20.324 8.352 19.9 8.352 19.356C8.352 18.86 8.16 18.46 7.776 18.156C7.408 17.852 6.856 17.604 6.12 17.412L4.968 17.1C3.88 16.812 3.032 16.38 2.424 15.804C1.816 15.212 1.512 14.548 1.512 13.812C1.512 12.676 1.88 11.796 2.616 11.172C3.368 10.532 4.48 10.212 5.952 10.212C6.656 10.212 7.296 10.316 7.872 10.524C8.448 10.732 8.944 11.028 9.36 11.412C9.776 11.78 10.08 12.22 10.272 12.732L8.592 13.476C8.384 12.932 8.04 12.54 7.56 12.3C7.08 12.06 6.496 11.94 5.808 11.94C5.072 11.94 4.496 12.1 4.08 12.42C3.664 12.724 3.456 13.156 3.456 13.716C3.456 14.036 3.624 14.34 3.96 14.628C4.312 14.9 4.824 15.124 5.496 15.3L6.696 15.612C7.48 15.804 8.136 16.092 8.664 16.476C9.192 16.844 9.592 17.268 9.864 17.748C10.136 18.228 10.272 18.74 10.272 19.284C10.272 20.004 10.08 20.628 9.696 21.156C9.312 21.684 8.792 22.092 8.136 22.38C7.48 22.652 6.728 22.788 5.88 22.788ZM17.6117 22.788C16.4437 22.788 15.5397 22.484 14.8997 21.876C14.2597 21.268 13.9397 20.412 13.9397 19.308V6.756H15.8597V19.116C15.8597 19.724 16.0197 20.196 16.3397 20.532C16.6757 20.852 17.1397 21.012 17.7317 21.012C17.9237 21.012 18.1077 20.988 18.2837 20.94C18.4757 20.876 18.7237 20.732 19.0277 20.508L19.7717 22.068C19.3557 22.34 18.9797 22.524 18.6437 22.62C18.3077 22.732 17.9637 22.788 17.6117 22.788ZM11.8517 12.204V10.5H19.4597V12.204H11.8517ZM30.642 22.5L30.522 20.292V10.5H32.442V22.5H30.642ZM22.098 16.644V10.5H24.018V16.644H22.098ZM24.018 16.644C24.018 17.828 24.154 18.732 24.426 19.356C24.698 19.98 25.074 20.412 25.554 20.652C26.05 20.876 26.602 20.988 27.21 20.988C28.25 20.988 29.058 20.612 29.634 19.86C30.226 19.108 30.522 18.06 30.522 16.716H31.458C31.458 17.98 31.274 19.068 30.906 19.98C30.538 20.892 30.002 21.588 29.298 22.068C28.61 22.548 27.762 22.788 26.754 22.788C25.826 22.788 25.01 22.604 24.306 22.236C23.602 21.852 23.058 21.252 22.674 20.436C22.29 19.604 22.098 18.532 22.098 17.22V16.644H24.018ZM44.9128 22.5L44.8168 20.268V5.7H46.7368V22.5H44.9128ZM40.7608 22.788C39.6888 22.788 38.7448 22.524 37.9288 21.996C37.1128 21.468 36.4728 20.732 36.0088 19.788C35.5608 18.828 35.3368 17.732 35.3368 16.5C35.3368 15.252 35.5608 14.156 36.0088 13.212C36.4728 12.268 37.1128 11.532 37.9288 11.004C38.7448 10.476 39.6888 10.212 40.7608 10.212C41.7688 10.212 42.6488 10.476 43.4008 11.004C44.1688 11.532 44.7608 12.268 45.1768 13.212C45.5928 14.156 45.8008 15.252 45.8008 16.5C45.8008 17.732 45.5928 18.828 45.1768 19.788C44.7608 20.732 44.1688 21.468 43.4008 21.996C42.6488 22.524 41.7688 22.788 40.7608 22.788ZM41.1928 21.036C41.8968 21.036 42.5208 20.844 43.0648 20.46C43.6088 20.076 44.0328 19.54 44.3368 18.852C44.6568 18.164 44.8168 17.38 44.8168 16.5C44.8168 15.62 44.6568 14.836 44.3368 14.148C44.0328 13.46 43.6088 12.924 43.0648 12.54C42.5208 12.156 41.8888 11.964 41.1688 11.964C40.4168 11.964 39.7448 12.156 39.1528 12.54C38.5768 12.924 38.1208 13.46 37.7848 14.148C37.4488 14.836 37.2808 15.62 37.2808 16.5C37.2808 17.38 37.4488 18.164 37.7848 18.852C38.1208 19.54 38.5848 20.076 39.1768 20.46C39.7688 20.844 40.4408 21.036 41.1928 21.036ZM50.4553 22.5V10.5H52.3753V22.5H50.4553ZM51.4393 7.716C51.1193 7.716 50.8393 7.596 50.5993 7.356C50.3593 7.116 50.2393 6.836 50.2393 6.516C50.2393 6.18 50.3593 5.9 50.5993 5.676C50.8393 5.436 51.1193 5.316 51.4393 5.316C51.7753 5.316 52.0553 5.436 52.2793 5.676C52.5193 5.9 52.6393 6.18 52.6393 6.516C52.6393 6.836 52.5193 7.116 52.2793 7.356C52.0553 7.596 51.7753 7.716 51.4393 7.716ZM61.4574 22.788C60.2894 22.788 59.2494 22.524 58.3374 21.996C57.4414 21.452 56.7374 20.708 56.2254 19.764C55.7134 18.82 55.4574 17.732 55.4574 16.5C55.4574 15.268 55.7054 14.18 56.2014 13.236C56.7134 12.292 57.4174 11.556 58.3134 11.028C59.2254 10.484 60.2574 10.212 61.4094 10.212C62.5934 10.212 63.6334 10.484 64.5294 11.028C65.4414 11.556 66.1454 12.292 66.6414 13.236C67.1534 14.18 67.4094 15.268 67.4094 16.5C67.4094 17.732 67.1534 18.82 66.6414 19.764C66.1454 20.708 65.4494 21.452 64.5534 21.996C63.6574 22.524 62.6254 22.788 61.4574 22.788ZM61.4574 21.012C62.2574 21.012 62.9534 20.82 63.5454 20.436C64.1374 20.052 64.6014 19.524 64.9374 18.852C65.2894 18.18 65.4654 17.396 65.4654 16.5C65.4654 15.604 65.2894 14.82 64.9374 14.148C64.6014 13.476 64.1294 12.948 63.5214 12.564C62.9134 12.18 62.2094 11.988 61.4094 11.988C60.6254 11.988 59.9294 12.18 59.3214 12.564C58.7294 12.948 58.2574 13.476 57.9054 14.148C57.5694 14.82 57.4014 15.604 57.4014 16.5C57.4014 17.38 57.5694 18.164 57.9054 18.852C58.2574 19.524 58.7374 20.052 59.3454 20.436C59.9694 20.82 60.6734 21.012 61.4574 21.012Z" fill="black"/>
<circle cx="2.5" cy="2.5" r="2.5" transform="matrix(-1 0 0 1 78 12)" fill="#FFCA40"/>
<path d="M83.488 22.5V5.7H86.176V20.268L86.032 22.5H83.488ZM89.968 22.788C88.96 22.788 88.088 22.532 87.352 22.02C86.632 21.492 86.08 20.756 85.696 19.812C85.312 18.868 85.12 17.764 85.12 16.5C85.12 15.22 85.312 14.116 85.696 13.188C86.08 12.244 86.632 11.516 87.352 11.004C88.088 10.476 88.96 10.212 89.968 10.212C91.056 10.212 92 10.476 92.8 11.004C93.616 11.516 94.248 12.244 94.696 13.188C95.16 14.116 95.392 15.22 95.392 16.5C95.392 17.764 95.16 18.868 94.696 19.812C94.248 20.756 93.616 21.492 92.8 22.02C92 22.532 91.056 22.788 89.968 22.788ZM89.296 20.34C89.936 20.34 90.504 20.18 91 19.86C91.496 19.524 91.888 19.068 92.176 18.492C92.48 17.916 92.632 17.252 92.632 16.5C92.632 15.748 92.488 15.084 92.2 14.508C91.928 13.932 91.544 13.484 91.048 13.164C90.552 12.844 89.976 12.684 89.32 12.684C88.712 12.684 88.168 12.844 87.688 13.164C87.208 13.484 86.832 13.932 86.56 14.508C86.304 15.084 86.176 15.748 86.176 16.5C86.176 17.252 86.304 17.916 86.56 18.492C86.832 19.068 87.2 19.524 87.664 19.86C88.144 20.18 88.688 20.34 89.296 20.34ZM98.0991 22.5V10.5H100.763V22.5H98.0991ZM99.4431 8.22C99.0111 8.22 98.6351 8.068 98.3151 7.764C98.0111 7.444 97.8591 7.068 97.8591 6.636C97.8591 6.204 98.0111 5.836 98.3151 5.532C98.6351 5.228 99.0111 5.076 99.4431 5.076C99.8751 5.076 100.243 5.228 100.547 5.532C100.867 5.836 101.027 6.204 101.027 6.636C101.027 7.068 100.867 7.444 100.547 7.764C100.243 8.068 99.8751 8.22 99.4431 8.22ZM104.171 22.5V5.7H106.859V20.268L106.715 22.5H104.171ZM110.651 22.788C109.643 22.788 108.771 22.532 108.035 22.02C107.315 21.492 106.763 20.756 106.379 19.812C105.995 18.868 105.803 17.764 105.803 16.5C105.803 15.22 105.995 14.116 106.379 13.188C106.763 12.244 107.315 11.516 108.035 11.004C108.771 10.476 109.643 10.212 110.651 10.212C111.739 10.212 112.683 10.476 113.483 11.004C114.299 11.516 114.931 12.244 115.379 13.188C115.843 14.116 116.075 15.22 116.075 16.5C116.075 17.764 115.843 18.868 115.379 19.812C114.931 20.756 114.299 21.492 113.483 22.02C112.683 22.532 111.739 22.788 110.651 22.788ZM109.979 20.34C110.619 20.34 111.187 20.18 111.683 19.86C112.179 19.524 112.571 19.068 112.859 18.492C113.163 17.916 113.315 17.252 113.315 16.5C113.315 15.748 113.171 15.084 112.883 14.508C112.611 13.932 112.227 13.484 111.731 13.164C111.235 12.844 110.659 12.684 110.003 12.684C109.395 12.684 108.851 12.844 108.371 13.164C107.891 13.484 107.515 13.932 107.243 14.508C106.987 15.084 106.859 15.748 106.859 16.5C106.859 17.252 106.987 17.916 107.243 18.492C107.515 19.068 107.883 19.524 108.347 19.86C108.827 20.18 109.371 20.34 109.979 20.34Z" fill="black"/>
</svg>
