<svg width="328" height="328" viewBox="0 0 328 328" fill="none" xmlns="http://www.w3.org/2000/svg">
<path d="M314.333 164C314.333 80.9733 247.027 13.6667 164 13.6667C80.9733 13.6667 13.6667 80.9733 13.6667 164C13.6667 247.027 80.9733 314.333 164 314.333C247.027 314.333 314.333 247.027 314.333 164Z" fill="#242424"/>
<path d="M248.931 182.055C256.34 182.055 262.347 176.049 262.347 168.639C262.347 161.229 256.34 155.223 248.931 155.223C241.521 155.223 235.515 161.229 235.515 168.639C235.515 176.049 241.521 182.055 248.931 182.055Z" fill="#FFCA40"/>
<path d="M174.546 249.462C162.132 249.462 152.034 239.364 152.034 226.95V212.988H163.818V227.14C163.818 233.055 168.632 238.339 174.546 238.339V249.462Z" fill="white" stroke="white" stroke-miterlimit="10"/>
<path d="M119.948 191.516C107.534 191.516 97.4358 181.418 97.4358 169.004C97.4358 156.59 107.534 146.492 119.948 146.492H124.625V157.334H119.948C113.282 157.334 109.219 163.089 109.219 169.004C109.219 175.685 114.033 180.393 119.948 180.393C125.862 180.393 130.676 175.784 130.676 169.004V136.811H142.46V169.004C142.46 181.418 132.362 191.516 119.948 191.516Z" fill="white" stroke="white" stroke-miterlimit="10"/>
<path d="M122.537 249.569C134.951 249.569 145.049 239.47 145.049 227.057C145.049 214.643 134.951 204.545 122.537 204.545H117.86V215.387H122.537C129.203 215.387 133.265 221.142 133.265 227.057C133.265 233.738 128.452 238.445 122.537 238.445C116.622 238.445 111.809 233.837 111.809 227.057V194.864H100.025V227.057C100.025 239.47 110.123 249.569 122.537 249.569Z" fill="white" stroke="white" stroke-miterlimit="10"/>
<path d="M201.113 249.569C213.527 249.569 223.625 239.47 223.625 227.057C223.625 214.643 213.527 204.545 201.113 204.545H196.436V215.387H201.113C207.779 215.387 211.841 221.142 211.841 227.057C211.841 233.738 207.027 238.445 201.113 238.445C195.198 238.445 190.384 233.837 190.384 227.057V194.864H178.601V227.057C178.601 239.47 188.699 249.569 201.113 249.569Z" fill="white" stroke="white" stroke-miterlimit="10"/>
<path d="M174.546 191.516C162.132 191.516 152.034 181.418 152.034 169.004V155.527H163.818V169.194C163.818 175.108 168.632 180.393 174.546 180.393V191.516Z" fill="white" stroke="white" stroke-miterlimit="10"/>
<path d="M201.098 191.189C188.714 191.189 178.639 181.114 178.639 168.73C178.639 156.347 188.714 146.271 201.098 146.271C213.481 146.271 223.564 156.347 223.564 168.73C223.564 181.114 213.489 191.189 201.098 191.189ZM201.098 157.387C195.213 157.387 190.422 162.019 190.422 168.723C190.422 175.427 195.213 180.059 201.098 180.059C206.982 180.059 211.773 175.389 211.773 168.723C211.773 161.525 206.982 157.387 201.098 157.387Z" fill="white" stroke="white" stroke-miterlimit="10"/>
<path d="M201.136 139.772C189.785 139.772 180.552 130.54 180.552 119.189V88.1729H192.336V119.659C192.336 124.511 196.284 128.641 201.136 128.641C205.987 128.641 209.935 124.503 209.935 119.659V88.4006H221.719V119.189C221.719 130.54 212.486 139.772 201.136 139.772Z" fill="white" stroke="white" stroke-miterlimit="10"/>
<path d="M162.345 110.647V99.0303H173.066V88.1198H162.345V75.8274H150.561V110.176C150.561 122.59 160.659 132.688 173.073 132.688V121.277C167.159 121.277 162.345 116.562 162.345 110.647Z" fill="white" stroke="white" stroke-miterlimit="10"/>
<path d="M164.061 136.864H151.943V148.982H164.061V136.864Z" fill="white" stroke="white" stroke-miterlimit="10"/>
<path d="M164.061 194.796H151.943V206.913H164.061V194.796Z" fill="white" stroke="white" stroke-miterlimit="10"/>
<path d="M121.299 133.227C108.84 133.227 98.6963 123.456 98.6963 111.452H110.328C110.328 116.873 115.248 121.747 121.299 121.747C127.351 121.747 132.271 116.873 132.271 111.452C132.271 106.031 127.351 101.619 121.299 101.619L121.603 90.8379C134.063 90.8379 143.895 98.886 143.895 111.915C143.895 123.926 133.759 133.227 121.299 133.227Z" fill="white" stroke="white" stroke-miterlimit="10"/>
<path d="M121.246 83.5869C124.921 83.5869 127.411 85.4775 129.135 87.9451H140.456C138.588 78.6517 131.193 72.5701 121.246 72.5701C109.576 72.5701 100.078 81.423 100.078 92.8803C100.078 105.097 109.576 112.416 121.246 112.416V101.71C115.985 101.71 111.71 97.7471 111.71 92.8803C111.71 88.0134 115.377 83.5869 121.246 83.5869Z" fill="white" stroke="white" stroke-miterlimit="10"/>
</svg>
