<?xml version="1.0" encoding="UTF-8"?>
<svg width="1200pt" height="1200pt" version="1.1" viewBox="0 0 1200 1200" xmlns="http://www.w3.org/2000/svg">
 <path d="m843.24 682.08v-104.64c0-14.992-5.9531-29.367-16.551-39.969-10.602-10.598-24.977-16.551-39.969-16.551-6.9883 0.011719-13.91 1.3555-20.398 3.957v-72.719c-0.0625-43.539-17.395-85.273-48.195-116.05-30.797-30.777-72.547-48.078-116.09-48.109h-4.0781c-43.539 0.03125-85.289 17.332-116.09 48.109-30.801 30.777-48.133 72.512-48.195 116.05v72.719c-17.359-6.9062-37.02-4.7266-52.445 5.8125-15.426 10.543-24.602 28.066-24.473 46.75v104.64-0.003906c0.050781 54.68 18.492 107.75 52.359 150.67 33.871 42.922 81.195 73.203 134.36 85.969v40.441h-29.281c-21.332 0-41.797 8.4648-56.895 23.543-15.094 15.074-23.594 35.523-23.625 56.855v40.441c0 4.7734 1.8984 9.3516 5.2734 12.727 3.375 3.3789 7.9531 5.2734 12.727 5.2734h296.64c4.7734 0 9.3516-1.8945 12.727-5.2734 3.375-3.375 5.2734-7.9531 5.2734-12.727v-40.441c-0.03125-21.332-8.5312-41.781-23.625-56.855-15.098-15.078-35.562-23.543-56.895-23.543h-29.281v-40.559c53.27-12.527 100.72-42.73 134.63-85.68 33.906-42.953 52.266-96.121 52.086-150.84zm-373.56-96h58.32c6.4297 0 12.375-3.4297 15.59-9 3.2148-5.5664 3.2148-12.43 0-18-3.2148-5.5664-9.1602-9-15.59-9h-58.32v-79.918h58.32c6.4297 0 12.375-3.4297 15.59-9 3.2148-5.5703 3.2148-12.43 0-18-3.2148-5.5703-9.1602-9-15.59-9h-56.879c4.3828-30.535 19.609-58.473 42.902-78.703 23.293-20.227 53.086-31.395 83.938-31.457h4.0781c30.867 0.066406 60.68 11.25 83.973 31.504 23.293 20.25 38.512 48.219 42.867 78.777h-56.879c-6.4297 0-12.375 3.4297-15.59 9-3.2148 5.5664-3.2148 12.43 0 18 3.2148 5.5664 9.1602 9 15.59 9h58.68v79.68h-58.68c-6.4297 0-12.375 3.4297-15.59 9-3.2148 5.5664-3.2148 12.43 0 18 3.2148 5.5664 9.1602 9 15.59 9h58.68v79.68h-58.68c-6.4297 0-12.375 3.4297-15.59 9s-3.2148 12.43 0 18 9.1602 9 15.59 9h57c-4.7305 30.535-20.176 58.387-43.57 78.57-23.395 20.188-53.211 31.383-84.109 31.59h-1.9219c-30.871-0.30469-60.633-11.535-84.008-31.703-23.375-20.168-38.848-47.965-43.672-78.457h56.281c6.4297 0 12.375-3.4297 15.59-9s3.2148-12.43 0-18-9.1602-9-15.59-9h-58.32zm168.84 409.08h47.281c11.785 0 23.09 4.6719 31.438 12.996 8.3438 8.3242 13.051 19.617 13.082 31.402v22.441h-260.64v-22.441c0.03125-11.785 4.7383-23.078 13.082-31.402 8.3477-8.3242 19.652-12.996 31.438-12.996h47.281c4.7734 0 9.3516-1.8984 12.727-5.2734s5.2734-7.9531 5.2734-12.727v-73.199c-0.015625-4.3281-1.5898-8.5039-4.4297-11.766-2.8438-3.2617-6.7656-5.3906-11.051-5.9961-48.051-8.3594-91.617-33.398-123.03-70.715-31.41-37.312-48.652-84.512-48.691-133.29v-104.76c0-5.4453 2.1602-10.664 6.0078-14.512 3.8477-3.8477 9.0703-6.0078 14.512-6.0078 5.4102 0.0625 10.582 2.2461 14.398 6.0859 3.8125 3.8359 5.9688 9.0195 6 14.434v103.92-0.003906c-0.054688 0.64062-0.054688 1.2812 0 1.9219v0.71875c0 44.078 17.512 86.352 48.68 117.52 31.168 31.172 73.441 48.68 117.52 48.68 44.082 0 86.355-17.508 117.52-48.68 31.168-31.168 48.68-73.441 48.68-117.52v-106.56c-0.035156-5.4336 2.1016-10.652 5.9297-14.504 3.832-3.8516 9.0391-6.0195 14.469-6.0156 5.4414 0 10.66 2.1602 14.512 6.0078 3.8477 3.8477 6.0078 9.0664 6.0078 14.512v104.64-0.003906c0.20312 48.668-16.797 95.84-47.996 133.19-31.203 37.348-74.598 62.473-122.52 70.93-4.1953 0.71094-8.0039 2.8828-10.75 6.1328-2.7461 3.2539-4.2539 7.3711-4.25 11.629v73.199c0 4.6914 1.8281 9.1992 5.1016 12.562 3.2734 3.3594 7.7266 5.3125 12.418 5.4375z" fill="#fff"/>
 <path d="m229.44 804.84h78.719c4.7734 0 9.3516-1.8945 12.727-5.2734 3.375-3.375 5.2734-7.9531 5.2734-12.727v-290.64c0-72.625 28.852-142.28 80.207-193.63 51.355-51.355 121.01-80.207 193.63-80.207s142.28 28.852 193.63 80.207c51.355 51.355 80.207 121.01 80.207 193.63v290.64c0 4.7734 1.8984 9.3516 5.2734 12.727 3.375 3.3789 7.9531 5.2734 12.727 5.2734h78.719c21.875 0 42.859-8.6797 58.336-24.137 15.48-15.461 24.195-36.426 24.227-58.305v-130.44c-0.011719-18.949-6.543-37.32-18.492-52.027-11.953-14.703-28.602-24.852-47.148-28.734v-22.078c0-102.67-40.785-201.14-113.39-273.73-72.598-72.602-171.06-113.39-273.73-113.39s-201.14 40.785-273.73 113.39c-72.598 72.598-113.39 171.06-113.39 273.73v21.961-0.003906c-18.688 3.7656-35.504 13.871-47.598 28.613-12.094 14.738-18.719 33.203-18.762 52.27v130.44c0.03125 21.879 8.7461 42.844 24.227 58.305 15.477 15.457 36.461 24.137 58.336 24.137zm787.68-212.88v130.44c-0.03125 12.328-4.9531 24.141-13.68 32.848-8.7305 8.7031-20.555 13.594-32.883 13.594h-60.719v-223.32h60.719c12.328 0 24.152 4.8906 32.883 13.594 8.7266 8.707 13.648 20.52 13.68 32.848zm-768-102.84c0-93.125 36.992-182.43 102.84-248.28 65.848-65.848 155.16-102.84 248.28-102.84 93.125 0 182.43 36.992 248.28 102.84 65.848 65.848 102.84 155.16 102.84 248.28v20.398h-41.52v-13.32c0-82.176-32.645-160.98-90.75-219.09-58.105-58.105-136.91-90.75-219.09-90.75s-160.98 32.645-219.09 90.75c-58.105 58.105-90.75 136.91-90.75 219.09v13.32h-40.922zm-66.359 102.84c0.03125-12.328 4.9492-24.141 13.68-32.848 8.7266-8.7031 20.551-13.594 32.879-13.594h60.719v223.32h-60.598c-12.328 0-24.152-4.8906-32.883-13.594-8.7266-8.707-13.648-20.52-13.68-32.848z" fill="#fff"/>
</svg>
