<?xml version="1.0" encoding="UTF-8"?>
<svg width="1200pt" height="1200pt" version="1.1" viewBox="0 0 1200 1200" xmlns="http://www.w3.org/2000/svg">
 <path d="m60.938 843.74v-637.5c0-18.656 7.4062-36.516 20.578-49.734 13.172-13.172 31.078-20.578 49.734-20.578h135.94v-4.6875c0-18.656 7.4062-36.516 20.578-49.734 13.172-13.172 31.078-20.578 49.734-20.578h525c18.656 0 36.562 7.4062 49.734 20.578 13.172 13.219 20.578 31.078 20.578 49.734v4.6875h135.94c18.656 0 36.562 7.4062 49.734 20.578 13.172 13.219 20.578 31.078 20.578 49.734v637.5c0 18.656-7.4062 36.516-20.578 49.734-13.172 13.172-31.078 20.578-49.734 20.578h-335.95l45.703 121.87h27.75c28.5 0 51.562 23.062 51.562 51.562v37.5c0 7.7812-6.2812 14.062-14.062 14.062h-487.5c-7.7812 0-14.062-6.2812-14.062-14.062v-37.5c0-28.5 23.062-51.562 51.562-51.562h27.75l45.703-121.87h-335.95c-18.656 0-36.562-7.4062-49.734-20.578-13.172-13.219-20.578-31.078-20.578-49.734zm206.26-679.69h-135.94c-11.203 0-21.938 4.4531-29.859 12.375-7.9219 7.9219-12.375 18.656-12.375 29.812v567.19h1021.9l0.046875-567.19c0-11.203-4.4531-21.938-12.328-29.812-7.9219-7.9219-18.656-12.375-29.859-12.375h-135.94v417.19c0 18.656-7.4062 36.516-20.578 49.734-13.172 13.172-31.078 20.578-49.734 20.578h-525c-18.656 0-36.516-7.4062-49.734-20.578-13.172-13.219-20.578-31.078-20.578-49.734zm112.5-75h-42.188c-11.203 0-21.938 4.4531-29.812 12.375-7.9219 7.9219-12.375 18.656-12.375 29.812v42.188h84.375zm412.5 0h-384.37v534.37h384.37zm112.5 84.375v-42.188c0-11.203-4.4531-21.938-12.375-29.812-7.9219-7.9219-18.656-12.375-29.859-12.375h-42.188v84.375zm-773.44 712.5h937.5c11.203 0 21.938-4.4531 29.859-12.375 7.9219-7.9219 12.328-18.656 12.328-29.812v-42.188h-1021.9v42.188c0 11.203 4.4531 21.938 12.375 29.812 7.9219 7.9219 18.656 12.375 29.859 12.375zm617.21 150-45.703-121.87h-205.5l-45.703 121.87zm57.797 28.125h-412.5c-12.938 0-23.438 10.5-23.438 23.438v23.438h459.37v-23.438c0-12.938-10.5-23.438-23.438-23.438zm98.438-778.13v-84.375h-84.375v84.375zm0 112.5v-84.375h-84.375v84.375zm0 112.5v-84.375h-84.375v84.375zm-84.375 112.5h42.188c11.203 0 21.938-4.4531 29.859-12.375s12.375-18.656 12.375-29.812v-42.188h-84.375v84.375zm-525-84.375v42.188c0 11.203 4.4062 21.938 12.375 29.812 7.9219 7.9219 18.609 12.375 29.812 12.375h42.188v-84.375zm0-112.5v84.375h84.375v-84.375zm0-112.5v84.375h84.375v-84.375zm0-112.5v84.375h84.375v-84.375zm387.56 110.06c15.844 9.2344 25.547 26.203 25.547 44.531s-9.75 35.297-25.547 44.531l-113.11 66.047c-15.938 9.2812-35.672 9.375-51.656 0.1875-16.031-9.1875-25.875-26.25-25.875-44.719v-132.1c0-18.469 9.8906-35.531 25.875-44.719 16.031-9.1875 35.719-9.1406 51.656 0.1875zm-14.203 24.281-113.11-66.047c-7.2656-4.2188-16.219-4.2656-23.484-0.09375-7.3125 4.1719-11.766 11.906-11.766 20.344v132.1c0 8.3906 4.5 16.125 11.766 20.344 7.2656 4.1719 16.219 4.125 23.484-0.09375l113.11-66.047c7.2188-4.2188 11.625-11.906 11.625-20.25s-4.4062-16.031-11.625-20.25z" fill="#fff" fill-rule="evenodd"/>
</svg>
