<?xml version="1.0" encoding="UTF-8"?>
<svg width="1200pt" height="1200pt" version="1.1" viewBox="0 0 1200 1200" xmlns="http://www.w3.org/2000/svg">
 <path d="m873.47 1000.5h-541.87c-55.781-0.046875-100.97-45.234-101.02-100.97v-599.06c0.09375-55.734 45.234-100.92 101.02-100.97h541.87-0.046875c55.781 0.046875 100.92 45.234 101.02 100.97v88.875c0 10.359-8.3906 18.75-18.75 18.75s-18.75-8.3906-18.75-18.75v-88.875c-0.046875-35.062-28.453-63.422-63.469-63.469h-541.87c-35.062 0.046875-63.469 28.406-63.516 63.469v599.06c0.046875 35.016 28.453 63.422 63.516 63.469h541.87-0.046875c35.062-0.046875 63.469-28.453 63.516-63.469v-88.875c0-10.359 8.3906-18.75 18.75-18.75s18.75 8.3906 18.75 18.75v88.875c-0.046875 55.734-45.234 100.92-100.97 100.97z" fill="#fff"/>
 <path d="m379.22 237c-10.312 0-18.75-8.3906-18.75-18.75v-157.31c0-10.359 8.4375-18.75 18.75-18.75 10.359 0 18.75 8.3906 18.75 18.75v157.31c0 4.9688-1.9688 9.75-5.4844 13.266s-8.25 5.4844-13.266 5.4844z" fill="#fff"/>
 <path d="m490.87 237c-10.359 0-18.75-8.3906-18.75-18.75v-157.31c0-10.359 8.3906-18.75 18.75-18.75s18.75 8.3906 18.75 18.75v157.31c0 4.9688-1.9688 9.75-5.4844 13.266s-8.2969 5.4844-13.266 5.4844z" fill="#fff"/>
 <path d="m602.53 237c-10.359 0-18.75-8.3906-18.75-18.75v-157.31c0-10.359 8.3906-18.75 18.75-18.75 10.312 0 18.75 8.3906 18.75 18.75v157.31c0 4.9688-2.0156 9.75-5.5312 13.266s-8.25 5.4844-13.219 5.4844z" fill="#fff"/>
 <path d="m714.14 237c-10.359 0-18.75-8.3906-18.75-18.75v-157.31c0-10.359 8.3906-18.75 18.75-18.75s18.75 8.3906 18.75 18.75v157.31c0 4.9688-1.9688 9.75-5.4844 13.266s-8.2969 5.4844-13.266 5.4844z" fill="#fff"/>
 <path d="m825.74 237c-10.312 0-18.75-8.3906-18.75-18.75v-157.31c0-10.359 8.4375-18.75 18.75-18.75 10.359 0 18.75 8.3906 18.75 18.75v157.31c0 4.9688-1.9688 9.75-5.4844 13.266-3.5156 3.5156-8.25 5.4844-13.266 5.4844z" fill="#fff"/>
 <path d="m379.22 1157.8c-10.312 0-18.75-8.3906-18.75-18.75v-157.31c0-10.359 8.4375-18.75 18.75-18.75 10.359 0 18.75 8.3906 18.75 18.75v157.31c0 4.9688-1.9688 9.75-5.4844 13.266s-8.25 5.4844-13.266 5.4844z" fill="#fff"/>
 <path d="m490.87 1157.8c-10.359 0-18.75-8.3906-18.75-18.75v-157.31c0-10.359 8.3906-18.75 18.75-18.75s18.75 8.3906 18.75 18.75v157.31c0 4.9688-1.9688 9.75-5.4844 13.266s-8.2969 5.4844-13.266 5.4844z" fill="#fff"/>
 <path d="m602.53 1157.8c-10.359 0-18.75-8.3906-18.75-18.75v-157.31c0-10.359 8.3906-18.75 18.75-18.75 10.312 0 18.75 8.3906 18.75 18.75v157.31c0 4.9688-2.0156 9.75-5.5312 13.266s-8.25 5.4844-13.219 5.4844z" fill="#fff"/>
 <path d="m714.14 1157.8c-10.359 0-18.75-8.3906-18.75-18.75v-157.31c0-10.359 8.3906-18.75 18.75-18.75s18.75 8.3906 18.75 18.75v157.31c0 4.9688-1.9688 9.75-5.4844 13.266s-8.2969 5.4844-13.266 5.4844z" fill="#fff"/>
 <path d="m825.74 1157.8c-10.312 0-18.75-8.3906-18.75-18.75v-157.31c0-10.359 8.4375-18.75 18.75-18.75 10.359 0 18.75 8.3906 18.75 18.75v157.31c0 4.9688-1.9688 9.75-5.4844 13.266-3.5156 3.5156-8.25 5.4844-13.266 5.4844z" fill="#fff"/>
 <path d="m249.32 842.02h-157.31c-10.359 0-18.75-8.3906-18.75-18.75s8.3906-18.75 18.75-18.75h157.31c10.359 0 18.75 8.3906 18.75 18.75s-8.3906 18.75-18.75 18.75z" fill="#fff"/>
 <path d="m249.32 730.4h-157.31c-10.359 0-18.75-8.4375-18.75-18.75 0-10.359 8.3906-18.75 18.75-18.75h157.31c10.359 0 18.75 8.3906 18.75 18.75 0 10.312-8.3906 18.75-18.75 18.75z" fill="#fff"/>
 <path d="m249.32 618.74h-157.31c-10.359 0-18.75-8.3906-18.75-18.75 0-10.359 8.3906-18.75 18.75-18.75h157.31c10.359 0 18.75 8.3906 18.75 18.75 0 10.359-8.3906 18.75-18.75 18.75z" fill="#fff"/>
 <path d="m249.32 507.1h-157.31c-10.359 0-18.75-8.3906-18.75-18.75 0-10.312 8.3906-18.75 18.75-18.75h157.31c10.359 0 18.75 8.4375 18.75 18.75 0 10.359-8.3906 18.75-18.75 18.75z" fill="#fff"/>
 <path d="m249.32 395.48h-157.31c-10.359 0-18.75-8.3906-18.75-18.75s8.3906-18.75 18.75-18.75h157.31c10.359 0 18.75 8.3906 18.75 18.75s-8.3906 18.75-18.75 18.75z" fill="#fff"/>
 <path d="m1108 730.4h-157.31c-10.359 0-18.75-8.4375-18.75-18.75 0-10.359 8.3906-18.75 18.75-18.75h157.31c10.359 0 18.75 8.3906 18.75 18.75 0 10.312-8.3906 18.75-18.75 18.75z" fill="#fff"/>
 <path d="m1108 618.74h-157.31c-10.359 0-18.75-8.3906-18.75-18.75 0-10.359 8.3906-18.75 18.75-18.75h157.31c10.359 0 18.75 8.3906 18.75 18.75 0 10.359-8.3906 18.75-18.75 18.75z" fill="#fff"/>
 <path d="m1108 507.1h-157.31c-10.359 0-18.75-8.3906-18.75-18.75 0-10.312 8.3906-18.75 18.75-18.75h157.31c10.359 0 18.75 8.4375 18.75 18.75 0 10.359-8.3906 18.75-18.75 18.75z" fill="#fff"/>
 <path d="m869.29 751.78c-1.5469 0-3.0938-0.1875-4.5469-0.5625-27.938-7.0781-53.391-21.75-73.453-42.422-3.6094-3.5156-5.625-8.3906-5.625-13.406 0.046875-5.0625 2.0625-9.8906 5.6719-13.406s8.4844-5.4375 13.547-5.2969c5.0625 0.09375 9.8438 2.25 13.266 5.9531 15.234 15.703 34.5 26.859 55.734 32.203h-0.046875c9.2344 2.2969 15.281 11.109 14.062 20.531-1.1719 9.4219-9.2344 16.453-18.75 16.406z" fill="#fff"/>
 <path d="m804.74 523.03c-7.5469 0-14.344-4.5-17.297-11.438-2.9062-6.9844-1.4062-15 3.8438-20.391 20.109-20.672 45.562-35.391 73.547-42.375v-0.046875c4.875-1.3594 10.125-0.70312 14.484 1.8281 4.4062 2.5312 7.5938 6.75 8.8125 11.672s0.42188 10.125-2.25 14.438c-2.6719 4.3125-6.9375 7.3594-11.906 8.4375-21.188 5.3438-40.453 16.5-55.688 32.203-3.5625 3.6562-8.4844 5.7188-13.547 5.6719z" fill="#fff"/>
 <path d="m770.95 656.06c-8.3906-0.046875-15.75-5.625-18.047-13.688-7.7812-27.703-7.7812-57.047 0-84.75 2.8125-9.9844 13.172-15.797 23.156-12.984 9.9375 2.8125 15.75 13.172 12.938 23.156-5.9062 21.047-5.9062 43.312 0 64.406v-0.046875c2.8125 9.9844-3 20.344-12.938 23.156-1.6406 0.46875-3.375 0.70312-5.1094 0.75z" fill="#fff"/>
 <path d="m869.26 485.72c-10.312 0-18.75-8.3906-18.75-18.75v-77.625c0-10.312 8.4375-18.75 18.75-18.75h86.438c10.359 0 18.75 8.4375 18.75 18.75 0 10.359-8.3906 18.75-18.75 18.75h-67.688v58.875c0 5.0156-1.9688 9.75-5.4844 13.266-3.5156 3.5156-8.25 5.4844-13.266 5.4844z" fill="#fff"/>
 <path d="m770.95 581.44c-3.2812 0-6.5156-0.84375-9.375-2.5312l-67.219-38.812 0.046875 0.046875c-4.3125-2.4844-7.4531-6.5625-8.7656-11.391-1.2656-4.7812-0.60938-9.9375 1.875-14.25l33.75-58.453c5.1562-8.9531 16.641-12 25.594-6.8438l67.219 38.812h0.046875c8.9531 5.2031 12 16.688 6.8438 25.641s-16.641 12.047-25.594 6.8438l-51-29.438-15 25.969 50.953 29.438c7.3594 4.2188 10.922 12.891 8.7656 21.094-2.2031 8.2031-9.6562 13.922-18.141 13.875z" fill="#fff"/>
 <path d="m737.53 753.28c-6.7031 0-12.938-3.5625-16.266-9.375l-33.75-58.453c-2.4844-4.3125-3.1406-9.4219-1.875-14.25 1.3125-4.7812 4.4531-8.8594 8.7656-11.391l67.172-38.719c4.3125-2.625 9.5156-3.4219 14.391-2.2031 4.9219 1.2656 9.1406 4.4062 11.625 8.8125 2.5312 4.3594 3.1875 9.6094 1.8281 14.484-1.3594 4.8281-4.6406 8.9531-9.0938 11.344l-50.953 29.438 15 25.969 51-29.438v-0.046875c8.9531-5.1562 20.438-2.0625 25.594 6.8906s2.1094 20.438-6.8438 25.594l-67.219 38.812h-0.046875c-2.8594 1.6406-6.0469 2.5312-9.3281 2.5312z" fill="#fff"/>
 <path d="m955.69 829.4h-86.438c-10.312 0-18.75-8.4375-18.75-18.75v-77.625c0-10.359 8.4375-18.75 18.75-18.75 10.359 0 18.75 8.3906 18.75 18.75v58.875h67.688c10.359 0 18.75 8.3906 18.75 18.75 0 10.312-8.3906 18.75-18.75 18.75z" fill="#fff"/>
 <path d="m903.05 684.56c-46.688 0-84.562-37.875-84.562-84.562s37.875-84.562 84.562-84.562c10.359 0 18.75 8.3906 18.75 18.75s-8.3906 18.75-18.75 18.75c-25.969 0-47.062 21.094-47.062 47.062s21.094 47.062 47.062 47.062c10.359 0 18.75 8.3906 18.75 18.75s-8.3906 18.75-18.75 18.75z" fill="#fff"/>
 <path d="m582.19 763.55h-222.66c-28.781-0.046875-52.172-23.391-52.219-52.219v-222.66c0.046875-28.828 23.438-52.172 52.219-52.219h222.66c28.828 0.046875 52.219 23.391 52.219 52.219v222.66c0 28.828-23.391 52.172-52.219 52.219zm-222.66-289.6c-8.1094 0-14.719 6.6094-14.719 14.719v222.66c0 3.8906 1.5938 7.6406 4.3125 10.406 2.7656 2.7656 6.5156 4.3125 10.406 4.3125h222.66c3.9375 0 7.6875-1.5469 10.453-4.3125 2.7188-2.7656 4.2656-6.5156 4.2656-10.406v-222.66c0-3.8906-1.5469-7.6406-4.2656-10.406-2.7656-2.7656-6.5156-4.3125-10.453-4.3125z" fill="#fff"/>
 <path d="m530.95 678.84h-120.14c-10.359 0-18.75-8.4375-18.75-18.75v-120.19c0-10.312 8.3906-18.75 18.75-18.75h120.19-0.046875c4.9688 0 9.75 2.0156 13.266 5.5312 3.5156 3.5156 5.4844 8.25 5.4844 13.219v120.19c0 4.9688-1.9688 9.7031-5.4844 13.219s-8.2969 5.5312-13.266 5.5312zm-101.44-37.5h82.688v-82.688h-82.641z" fill="#fff"/>
</svg>
