<?xml version="1.0" encoding="UTF-8"?>
<svg width="1200pt" height="1200pt" version="1.1" viewBox="0 0 1200 1200" xmlns="http://www.w3.org/2000/svg">
 <path d="m965.63 182.16h-156.71v-17.391c0-28.781-23.438-52.219-52.219-52.219h-313.4c-28.781 0-52.219 23.438-52.219 52.219v17.391h-156.71c-67.172 0-121.87 54.656-121.87 121.87v661.6c0 67.172 54.703 121.87 121.87 121.87h731.26c67.172 0 121.87-54.703 121.87-121.87v-661.6c0-67.219-54.703-121.87-121.87-121.87zm-539.72-17.438c0-9.6094 7.7812-17.391 17.391-17.391h313.4c9.6094 0 17.391 7.8281 17.391 17.391v69.656c0 9.6094-7.7812 17.391-17.391 17.391h-313.4c-9.6094 0-17.391-7.8281-17.391-17.391zm626.76 800.9c0 48-39.047 87.047-87.047 87.047h-731.26c-48 0-87.047-39.047-87.047-87.047v-661.6c0-48 39.047-87.047 87.047-87.047h156.71v17.391c0 28.781 23.438 52.219 52.219 52.219h313.4c28.781 0 52.219-23.438 52.219-52.219v-17.391h156.71c48 0 87.047 39.047 87.047 87.047zm-104.44-713.86h-52.219c-28.781 0-52.219 23.438-52.219 52.219 0 9.6094-7.7812 17.391-17.391 17.391h-452.68c-9.6094 0-17.391-7.8281-17.391-17.391 0-28.781-23.438-52.219-52.219-52.219h-69.656c-28.781 0-52.219 23.438-52.219 52.219v661.6c0 28.781 23.438 52.219 52.219 52.219h713.86c28.781 0 52.219-23.438 52.219-52.219l-0.09375-661.55c0-28.781-23.438-52.219-52.219-52.219zm-296.02 104.48v69.656h-104.48v-69.656zm-174.1 139.26c-23.016 0-23.016-34.828 0-34.828h243.74c23.016 0 23.016 34.828 0 34.828zm154.4 34.828-10.641 85.172c-3.1875 25.594-40.547 25.594-43.734 0l-10.641-85.172zm-102.19 452.68v-34.828h139.26v34.828zm-87.047-69.609c-51.75 0-68.203-69.656-34.828-69.656h383.02c32.953 0 17.203 69.656-34.828 69.656h-313.4zm522.32 52.219c0 9.6094-7.7812 17.391-17.391 17.391h-243.74v-34.828h52.219c48 0 87.047-39.047 87.047-87.047 0-28.781-23.438-52.219-52.219-52.219h-383.02c-28.781 0-52.219 23.438-52.219 52.219 0 48 39.047 87.047 87.047 87.047h52.219v34.828h-261.14c-9.6094 0-17.391-7.7812-17.391-17.391l-0.046875-661.6c0-9.6094 7.7812-17.391 17.391-17.391h69.656c9.6094 0 17.391 7.8281 17.391 17.391 0 28.781 23.438 52.219 52.219 52.219h139.26v69.656h-34.828c-28.781 0-52.219 23.438-52.219 52.219s23.438 52.219 52.219 52.219h54.281l11.203 89.484c3.5156 28.406 27.797 49.781 56.438 49.781 28.594 0 52.875-21.422 56.438-49.781l11.203-89.484h54.281c28.781 0 52.219-23.438 52.219-52.219s-23.438-52.219-52.219-52.219h-34.828v-69.656h139.26c28.781 0 52.219-23.438 52.219-52.219 0-9.6094 7.7812-17.391 17.391-17.391h52.219c9.6094 0 17.391 7.8281 17.391 17.391v661.6z" fill="#fff"/>
</svg>
