<svg width="564" height="558" viewBox="0 0 564 558" fill="none" xmlns="http://www.w3.org/2000/svg">
<path d="M540.499 279C540.499 137.753 424.766 23.2501 282 23.2501C139.235 23.2501 23.5 137.753 23.5 279C23.5 420.247 139.235 534.749 282 534.749C424.766 534.749 540.499 420.247 540.499 279Z" fill="#242424"/>
<path d="M428.04 309.715C440.78 309.715 451.109 299.498 451.109 286.892C451.109 274.286 440.78 264.068 428.04 264.068C415.298 264.068 404.971 274.286 404.971 286.892C404.971 299.498 415.298 309.715 428.04 309.715Z" fill="#FFCA40"/>
<path d="M300.134 424.39C278.788 424.39 261.424 407.211 261.424 386.092V362.339H281.687V386.415C281.687 396.478 289.965 405.467 300.134 405.467V424.39Z" fill="white" stroke="white" stroke-miterlimit="10"/>
<path d="M206.252 325.811C184.906 325.811 167.542 308.632 167.542 287.513C167.542 266.394 184.906 249.215 206.252 249.215H214.294V267.66H206.252C194.79 267.66 187.803 277.45 187.803 287.513C187.803 298.879 196.081 306.888 206.252 306.888C216.421 306.888 224.699 299.047 224.699 287.513V232.746H244.962V287.513C244.962 308.632 227.598 325.811 206.252 325.811Z" fill="white" stroke="white" stroke-miterlimit="10"/>
<path d="M210.704 424.572C232.05 424.572 249.413 407.391 249.413 386.274C249.413 365.155 232.05 347.976 210.704 347.976H202.662V366.421H210.704C222.166 366.421 229.151 376.211 229.151 386.274C229.151 397.64 220.875 405.647 210.704 405.647C200.533 405.647 192.257 397.808 192.257 386.274V331.506H171.994V386.274C171.994 407.391 189.358 424.572 210.704 424.572Z" fill="white" stroke="white" stroke-miterlimit="10"/>
<path d="M345.816 424.572C367.162 424.572 384.526 407.391 384.526 386.274C384.526 365.155 367.162 347.976 345.816 347.976H337.774V366.421H345.816C357.279 366.421 364.263 376.211 364.263 386.274C364.263 397.64 355.986 405.647 345.816 405.647C335.645 405.647 327.368 397.808 327.368 386.274V331.506H307.107V386.274C307.107 407.391 324.47 424.572 345.816 424.572Z" fill="white" stroke="white" stroke-miterlimit="10"/>
<path d="M300.134 325.811C278.788 325.811 261.424 308.632 261.424 287.513V264.586H281.687V287.836C281.687 297.897 289.965 306.888 300.134 306.888V325.811Z" fill="white" stroke="white" stroke-miterlimit="10"/>
<path d="M345.79 325.254C324.496 325.254 307.172 308.115 307.172 287.047C307.172 265.981 324.496 248.839 345.79 248.839C367.083 248.839 384.421 265.981 384.421 287.047C384.421 308.115 367.097 325.254 345.79 325.254ZM345.79 267.75C335.671 267.75 327.433 275.63 327.433 287.035C327.433 298.44 335.671 306.32 345.79 306.32C355.908 306.32 364.146 298.375 364.146 287.035C364.146 274.79 355.908 267.75 345.79 267.75Z" fill="white" stroke="white" stroke-miterlimit="10"/>
<path d="M345.856 237.783C326.338 237.783 310.461 222.077 310.461 202.767V150.001H330.724V203.566C330.724 211.821 337.513 218.847 345.856 218.847C354.197 218.847 360.986 211.807 360.986 203.566V150.389H381.249V202.767C381.249 222.077 365.372 237.783 345.856 237.783Z" fill="white" stroke="white" stroke-miterlimit="10"/>
<path d="M279.154 188.235V168.472H297.589V149.911H279.154V128.999H258.892V187.434C258.892 208.552 276.255 225.731 297.601 225.731V206.319C287.432 206.319 279.154 198.298 279.154 188.235Z" fill="white" stroke="white" stroke-miterlimit="10"/>
<path d="M282.105 232.836H261.268V253.451H282.105V232.836Z" fill="white" stroke="white" stroke-miterlimit="10"/>
<path d="M282.105 331.391H261.268V352.004H282.105V331.391Z" fill="white" stroke="white" stroke-miterlimit="10"/>
<path d="M208.575 226.648C187.152 226.648 169.709 210.026 169.709 189.604H189.71C189.71 198.827 198.17 207.118 208.575 207.118C218.982 207.118 227.442 198.827 227.442 189.604C227.442 180.382 218.982 172.876 208.575 172.876L209.098 154.535C230.523 154.535 247.429 168.227 247.429 190.392C247.429 210.825 230 226.648 208.575 226.648Z" fill="white" stroke="white" stroke-miterlimit="10"/>
<path d="M208.484 142.2C214.803 142.2 219.085 145.416 222.049 149.614H241.516C238.304 133.804 225.588 123.458 208.484 123.458C188.417 123.458 172.085 138.518 172.085 158.01C172.085 178.793 188.417 191.244 208.484 191.244V173.031C199.438 173.031 192.087 166.289 192.087 158.01C192.087 149.73 198.392 142.2 208.484 142.2Z" fill="white" stroke="white" stroke-miterlimit="10"/>
</svg>
