<?xml version="1.0" encoding="UTF-8"?>
<svg width="1200pt" height="1200pt" version="1.1" viewBox="0 0 1200 1200" xmlns="http://www.w3.org/2000/svg">
 <path d="m597.37 0c-154.31 0-308.58 58.688-426.1 176.21v0.28125c-190.36 190.55-222.84 482.16-93.422 716.02l-41.719 227.39h0.046876c-2.2969 12.234 1.5938 24.75 10.406 33.516 8.7656 8.8125 21.281 12.656 33.469 10.406l227.39-41.719c233.86 129.47 525.71 96.984 716.26-93.422 235.08-235.03 235.08-617.44 0-852.52-117.52-117.47-272.02-176.16-426.32-176.16zm0 74.719c134.9 0 269.86 51.75 373.03 154.87 206.29 206.26 206.29 539.44 0 745.74-172.36 172.18-439.74 204.24-647.68 77.297h-0.046874c-7.875-4.8281-17.297-6.6094-26.391-4.9688l-176.21 32.203 32.297-176.21c1.6875-9.0938 0-18.516-4.7812-26.438-126.94-207.94-95.203-475.26 77.016-647.63 103.12-103.12 237.89-154.87 372.79-154.87zm0 171c-132 0-239.63 108.28-239.63 240.71h0.046874c0.046876 20.672 16.828 37.406 37.5 37.5 9.9844 0.046875 19.547-3.8906 26.672-10.922 7.0781-7.0312 11.062-16.594 11.109-26.578 0-91.969 73.266-165.42 164.29-165.42 91.027 0 164.21 73.453 164.21 165.42 0 76.781-51.656 140.76-121.22 159.79-41.812 11.438-80.812 46.781-80.812 97.312v73.922h0.046875c-0.046875 10.031 3.9375 19.641 11.016 26.766 7.0781 7.0781 16.734 11.062 26.766 11.016 9.9844-0.046875 19.547-4.0312 26.578-11.109 7.0312-7.125 10.969-16.688 10.922-26.672v-73.922c0-9.2344 9.9844-20.531 25.312-24.703h0.28125c101.91-27.891 176.21-121.82 176.21-232.4 0-132.42-107.3-240.71-239.29-240.71zm-1.125 642.37c-22.453 0.5625-41.016 19.406-41.016 41.859 0 22.781 19.219 41.906 42.141 41.906s41.859-19.125 41.859-41.906-18.938-41.859-41.859-41.859z" fill="#fff"/>
</svg>
