<?xml version="1.0" encoding="UTF-8"?>
<svg width="1200pt" height="1200pt" version="1.1" viewBox="0 0 1200 1200" xmlns="http://www.w3.org/2000/svg">
 <path d="m1131.4 327.21c-23.301-14.703-52.535-16.363-77.355-4.3984l-209.72 92.543v-100.36c0-67.457-54.684-122.14-122.14-122.14h-570c-67.461 0-122.14 54.684-122.14 122.14v570c0 67.457 54.684 122.14 122.14 122.14h570c67.457 0 122.14-54.684 122.14-122.14v-100.36l208.86 92.219c25.23 12.188 54.949 10.551 78.684-4.3359 23.738-14.887 38.152-40.93 38.164-68.945v-407.15c0.097656-28.238-14.551-54.477-38.637-69.215zm-368.5 557.79c0 22.484-18.227 40.715-40.715 40.715h-570c-22.484 0-40.715-18.227-40.715-40.715v-570c0-22.484 18.227-40.715 40.715-40.715h570c22.488 0 40.715 18.227 40.715 40.715zm325.71-81.43-1.75-0.85547-242.54-107.12v-191.36l244.29-107.81z" fill="#fff"/>
</svg>
