<?xml version="1.0" encoding="UTF-8"?>
<svg width="1200pt" height="1200pt" version="1.1" viewBox="0 0 1200 1200" xmlns="http://www.w3.org/2000/svg">
 <path d="m600 649.08c-42.609 0-83.906-16.359-119.44-47.297-33.609-29.203-60.703-70.312-78.469-118.78v-0.046875c-3-9.75 2.1562-20.109 11.719-23.625 9.6094-3.5156 20.25 1.0781 24.281 10.453 31.922 86.906 93.938 140.9 161.9 140.9 67.969 0 129.98-54 161.86-140.9v-0.046875c4.0312-9.375 14.672-13.922 24.281-10.453 9.5625 3.5156 14.719 13.922 11.719 23.672-17.766 48.516-44.906 89.578-78.469 118.78-35.484 30.984-76.781 47.344-119.39 47.344z" fill="#fff"/>
 <path d="m798.71 319.36c-9.6094 0-17.672-7.0781-18.984-16.547-14.438-103.97-79.922-163.6-179.72-163.6s-165.28 59.625-179.72 163.6c-1.4531 10.5-11.109 17.812-21.656 16.359-10.5-1.4531-17.812-11.156-16.359-21.656 8.6719-62.578 34.641-113.72 75.094-147.98 37.688-31.875 87-48.75 142.64-48.75s104.95 16.781 142.64 48.75c40.453 34.266 66.422 85.406 75.094 147.98 0.70312 5.0625-0.60938 10.172-3.7031 14.25-3.0469 4.0781-7.6406 6.75-12.703 7.4531-0.84375 0.09375-1.7344 0.14062-2.625 0.14062z" fill="#fff"/>
 <path d="m791.63 495.61h-383.26c-30.141-0.046875-54.562-24.469-54.562-54.562v-105.94c0-30.141 24.422-54.562 54.562-54.609h383.26c30.141 0.046875 54.562 24.469 54.562 54.609v105.89c0 30.141-24.422 54.562-54.562 54.609zm-383.26-176.72c-8.9062 0-16.172 7.2656-16.172 16.219v105.89c0 4.2656 1.6875 8.3906 4.7344 11.438s7.1719 4.7812 11.438 4.7812h383.26c8.9062-0.046875 16.172-7.2656 16.172-16.172v-105.94c0-8.9531-7.2656-16.219-16.172-16.219z" fill="#fff"/>
 <path d="m871.5 457.22h-44.484c-10.594 0-19.219-8.625-19.219-19.219v-99.891c0-10.594 8.625-19.172 19.219-19.172h44.484c21.328 0 38.625 17.297 38.625 38.672v60.938c0 21.328-17.297 38.625-38.625 38.672zm-25.312-38.391h25.312v-0.046875c0.14062 0 0.23438-0.09375 0.23438-0.23438v-60.938c0-0.14062-0.09375-0.28125-0.23438-0.28125h-25.312z" fill="#fff"/>
 <path d="m372.98 457.22h-44.484c-21.328-0.046875-38.625-17.344-38.625-38.672v-60.938c0-21.328 17.297-38.625 38.625-38.672h44.484c5.1094 0 9.9844 2.0156 13.594 5.625s5.625 8.4844 5.625 13.594v99.844c0 5.1094-2.0156 9.9844-5.625 13.594-3.6094 3.5625-8.4844 5.625-13.594 5.625zm-44.484-99.844c-0.14062 0-0.23438 0.09375-0.23438 0.23438v60.938c0 0.14062 0.09375 0.23438 0.23438 0.23438h25.312v-61.453z" fill="#fff"/>
 <path d="m1003.8 1099.2h-807.61c-5.3906 0-10.547-2.2969-14.203-6.2812-3.6094-4.0312-5.3906-9.375-4.875-14.719l21.047-223.03c2.5312-49.406 26.203-95.344 66.703-129.28 39.938-33.516 92.297-51.984 147.32-51.984h63.844c5.5781 0 13.406 2.25 18.844 12.844 1.0312 1.9688 2.1094 4.4062 3.4688 7.5 10.594 23.578 38.719 86.203 101.62 86.203s91.031-62.625 101.62-86.203c1.3594-3.0938 2.4844-5.5312 3.4688-7.5 5.4375-10.641 13.219-12.844 18.844-12.844h63.844c55.078 0 107.39 18.422 147.32 51.938 40.5 33.984 64.219 79.875 66.703 129.28l21.141 223.08c0.51562 5.3438-1.2656 10.688-4.9219 14.719-3.6562 3.9844-8.8125 6.2812-14.203 6.2812zm-786.47-38.391 765.37-0.046875-19.078-202.4v-0.89062c-3.9375-81.375-81.141-145.22-175.69-145.22h-52.312c-13.078 28.969-50.25 106.55-135.61 106.55-85.312 0-122.53-77.531-135.61-106.55h-52.219c-94.594 0-171.74 63.75-175.69 145.22 0 0.28125 0 0.60937-0.046876 0.89062z" fill="#fff"/>
 <path d="m396.37 1099.2c-10.594 0-19.172-8.625-19.172-19.219v-126.94c0-10.641 8.5781-19.219 19.172-19.219 10.641 0 19.219 8.5781 19.219 19.219v126.94c0 5.1094-2.0156 9.9844-5.625 13.594-3.6094 3.5625-8.4844 5.625-13.594 5.625z" fill="#fff"/>
 <path d="m803.63 1099.2c-10.641 0-19.219-8.625-19.219-19.219v-126.94c0-10.641 8.5781-19.219 19.219-19.219 10.594 0 19.172 8.5781 19.172 19.219v126.94c0 5.1094-2.0156 9.9844-5.625 13.594-3.6094 3.5625-8.4844 5.625-13.547 5.625z" fill="#fff"/>
 <path d="m600 1099.2c-10.594 0-19.219-8.625-19.219-19.219v-280.31c0-10.641 8.625-19.219 19.219-19.219s19.219 8.5781 19.219 19.219v280.31c0 5.1094-2.0625 9.9844-5.625 13.594-3.6094 3.5625-8.4844 5.625-13.594 5.625z" fill="#fff"/>
 <path d="m723.98 712.31c-7.0312 0.046875-13.5-3.7969-16.828-9.9844l-46.453-84.75c-2.4375-4.4531-3-9.7031-1.5938-14.625 1.4531-4.875 4.7812-9 9.2344-11.438 9.2812-5.1094 20.953-1.6875 26.062 7.6406l46.406 84.797v-0.046875c3.2812 5.9531 3.1406 13.172-0.32812 18.984-3.4219 5.8594-9.7031 9.4219-16.453 9.4219z" fill="#fff"/>
 <path d="m476.02 712.31c-6.7969 0-13.031-3.5625-16.5-9.4219-3.4219-5.8125-3.5625-13.031-0.32812-18.984l46.406-84.797 0.046875 0.046875c5.0625-9.3281 16.734-12.75 26.062-7.6406 9.2812 5.1094 12.703 16.781 7.5938 26.062l-46.406 84.75c-3.375 6.1875-9.8438 10.031-16.875 9.9844z" fill="#fff"/>
</svg>
