<svg width="283" height="78" viewBox="0 0 283 78" fill="none" xmlns="http://www.w3.org/2000/svg">
<path d="M20.9669 71.6436C32.5052 71.6436 41.9338 61.6784 41.9338 49.1904L41.9421 0.881999V0H40.936H29.6262H28.6229V0.881999V51.4668C28.6229 56.8904 24.7377 59.4132 20.9725 59.4132C17.2044 59.4132 13.322 56.8904 13.322 51.4668V0.881999V0H12.3187H1.00612H0V0.881999L0.0055742 49.1904C0.0055742 61.6812 9.43133 71.6436 20.9669 71.6436Z" fill="white"/>
<path d="M21.633 55.6192H20.2617V2.21762H21.633V55.6192ZM25.245 54.4628H23.8737V2.23162H25.245V54.4628ZM17.9652 54.4628H16.594V2.21762H17.9652V54.4628Z" fill="white"/>
<path d="M76.8052 24.304C75.9607 25.3232 74.7177 25.8468 73.0789 25.872L65.7825 25.9896C65.8354 25.6508 65.8661 25.2308 65.88 24.7352C65.8939 24.2396 65.8995 23.6376 65.8995 22.932V6.1152C65.8995 5.1744 65.919 4.3512 65.958 3.6456C65.9971 2.94 66.2061 2.3772 66.5823 1.96C66.9586 1.5428 67.6303 1.3188 68.5918 1.2936V0H59.8126V1.7248C60.2808 1.6996 60.7491 1.6716 61.2173 1.6464C61.6855 1.6212 62.1537 1.5932 62.622 1.568C62.5969 1.96 62.569 2.3968 62.5439 2.8812C62.5188 3.3656 62.5049 3.8668 62.5049 4.3904V21.3248C62.5049 22.2404 62.4854 23.0552 62.4464 23.7748C62.4074 24.4944 62.2067 25.0544 61.8416 25.4604C61.4765 25.8664 60.802 26.0932 59.8126 26.1464V27.44H79.1658L79.3999 19.3256H78.0733C78.0733 21.6244 77.6497 23.2848 76.8052 24.304Z" fill="white"/>
<path d="M84.9601 26.7932C86.4038 27.6416 88.023 28.0672 89.8179 28.0672C90.7014 28.0672 91.6657 27.9244 92.7053 27.636C93.7448 27.3476 94.7593 26.8772 95.7487 26.2248C96.7381 25.5724 97.5826 24.696 98.2849 23.5984L97.3485 22.8144C96.9053 23.4164 96.32 23.9652 95.5926 24.4608C94.8652 24.9564 94.0765 25.3484 93.232 25.6368C92.3875 25.9252 91.5598 26.068 90.7543 26.068C89.2465 26.068 88.0091 25.6564 87.0476 24.8332C86.086 24.01 85.3893 22.848 84.9601 21.3444C84.5309 19.8408 84.3163 18.0964 84.3163 16.1112L98.0508 15.876C98.0508 14.4116 97.8418 13.1376 97.4265 12.054C97.0112 10.9704 96.4371 10.0688 95.7097 9.3492C94.9823 8.6296 94.1434 8.0948 93.193 7.742C92.2426 7.3892 91.2225 7.2128 90.13 7.2128C88.1791 7.2128 86.4623 7.7028 84.9796 8.6828C83.4969 9.6628 82.3458 10.9508 81.5264 12.544C80.7071 14.1372 80.2974 15.8508 80.2974 17.6792C80.2974 19.796 80.7126 21.6328 81.546 23.1868C82.3765 24.7408 83.5164 25.9448 84.9601 26.7932ZM86.4038 10.094C87.4043 9.1924 88.6613 8.7416 90.1691 8.7416C91.1835 8.7416 92.0029 9.0216 92.6272 9.5844C93.2515 10.1472 93.7002 10.864 93.9734 11.7404C94.2465 12.6168 94.383 13.524 94.383 14.4648H84.4333C84.7455 12.4516 85.4004 10.9956 86.4038 10.094Z" fill="white"/>
<path d="M109.249 26.2052C108.6 26.4264 107.936 26.5384 107.259 26.5384C106.27 26.5384 105.347 26.3032 104.489 25.8328C103.63 25.3624 102.928 24.7016 102.382 23.8532C101.836 23.0048 101.537 22.0444 101.484 20.972H100.275L100.509 27.7144H102.148L101.992 26.3424C102.641 26.7876 103.474 27.1852 104.489 27.538C105.503 27.8908 106.66 28.0672 107.961 28.0672C109.079 28.0672 110.152 27.8656 111.181 27.4596C112.209 27.0536 113.053 26.4208 113.717 25.5584C114.38 24.696 114.712 23.6124 114.712 22.3048C114.712 21.1288 114.413 20.1684 113.814 19.4236C113.215 18.6788 112.449 18.0572 111.512 17.5616C110.576 17.066 109.614 16.6068 108.625 16.1896C107.713 15.8228 106.855 15.4448 106.05 15.0528C105.244 14.6608 104.586 14.196 104.079 13.6612C103.572 13.1264 103.318 12.4516 103.318 11.6424C103.318 10.8584 103.656 10.1668 104.333 9.5648C105.01 8.9628 105.946 8.6632 107.142 8.6632C108.26 8.6632 109.171 8.9432 109.873 9.506C110.576 10.0688 111.108 10.7744 111.473 11.6228C111.838 12.4712 112.044 13.3532 112.097 14.2688H113.346V7.4088H111.707L111.785 8.8984C110.98 8.246 110.147 7.8008 109.288 7.5656C108.43 7.3304 107.649 7.2128 106.947 7.2128C105.62 7.2128 104.528 7.4032 103.669 7.7812C102.811 8.1592 102.134 8.6436 101.64 9.2316C101.147 9.8196 100.796 10.4412 100.587 11.0936C100.378 11.746 100.275 12.348 100.275 12.8968C100.275 13.8908 100.47 14.7252 100.86 15.4056C101.25 16.086 101.777 16.66 102.44 17.1304C103.104 17.6008 103.826 18.0068 104.606 18.3456C105.386 18.6844 106.167 19.012 106.947 19.3256C107.752 19.6392 108.508 19.978 109.21 20.3448C109.912 20.7116 110.478 21.1344 110.907 21.6188C111.337 22.1032 111.551 22.7108 111.551 23.4416C111.551 24.1472 111.331 24.7296 110.888 25.186C110.445 25.6424 109.898 25.984 109.249 26.2052Z" fill="white"/>
<path d="M74.386 48.748C73.0455 47.9388 71.5433 47.5328 69.8794 47.5328C68.6838 47.5328 67.5829 47.7344 66.5823 48.1404C65.5818 48.5464 64.715 49.1148 63.9876 49.8456V38.164H62.8561C62.6749 38.346 62.4213 38.5168 62.0952 38.6736C61.7691 38.8304 61.2898 38.962 60.6515 39.0656C60.0133 39.1692 59.1242 39.2224 57.9788 39.2224V40.8688C58.447 40.8436 58.9096 40.8156 59.3639 40.7904C59.8182 40.7652 60.2809 40.7372 60.7491 40.712C60.6961 41.2356 60.6655 41.6864 60.6515 42.0644C60.6376 42.4424 60.632 42.8428 60.632 43.26L60.554 67.76H61.9196L62.8561 65.996C63.6894 66.9368 64.6314 67.5696 65.6849 67.8972C66.7384 68.2248 67.7083 68.3872 68.5918 68.3872C70.3616 68.3872 72.0115 67.942 73.5471 67.0544C75.0828 66.1668 76.3314 64.904 77.2929 63.2716C78.2544 61.6392 78.7366 59.71 78.7366 57.4896C78.7366 55.4512 78.3464 53.6872 77.5661 52.1976C76.7857 50.708 75.7266 49.5572 74.386 48.748ZM73.9568 62.8012C73.4496 64.0416 72.7417 65.016 71.8303 65.7216C70.919 66.4272 69.8404 66.78 68.5918 66.78C67.8114 66.78 67.0701 66.6372 66.3677 66.3488C65.6654 66.0604 65.0941 65.5452 64.6509 64.8004C64.2078 64.0556 63.9876 62.9916 63.9876 61.6056V51.688C64.5868 51.0076 65.3087 50.4672 66.1531 50.0612C66.9976 49.6552 67.8504 49.4536 68.7089 49.4536C70.0606 49.4536 71.181 49.84 72.0644 50.61C72.9479 51.38 73.6112 52.4384 74.0544 53.7852C74.4975 55.132 74.7177 56.6916 74.7177 58.4696C74.7177 60.116 74.4641 61.5608 73.9568 62.8012Z" fill="white"/>
<path d="M84.3163 39.2224C83.77 39.2224 83.2823 39.452 82.8531 39.9084C82.4239 40.3648 82.2093 40.922 82.2093 41.5744C82.2093 42.2268 82.4183 42.7756 82.8336 43.2208C83.2489 43.666 83.731 43.8872 84.2773 43.8872C84.8486 43.8872 85.3503 43.666 85.7795 43.2208C86.2087 42.7756 86.4233 42.2268 86.4233 41.5744C86.4233 40.922 86.2226 40.3648 85.8185 39.9084C85.4144 39.452 84.9127 39.2224 84.3163 39.2224Z" fill="white"/>
<path d="M86.0331 66.2704C86.1111 65.8252 86.1557 65.4024 86.1696 64.9964C86.1836 64.5904 86.1891 64.1284 86.1891 63.6048V47.768H85.0576C84.8764 47.95 84.6228 48.1208 84.2967 48.2776C83.9707 48.4344 83.4969 48.566 82.8726 48.6696C82.2483 48.7732 81.3648 48.8264 80.2193 48.8264V50.4728C80.6875 50.4476 81.1502 50.4196 81.6045 50.3944C82.0587 50.3692 82.5214 50.3412 82.9896 50.316C82.9367 50.8396 82.8976 51.2904 82.8726 51.6684C82.8475 52.0464 82.8335 52.4468 82.8335 52.864V61.8016C82.8335 62.7424 82.8085 63.5712 82.7555 64.2908C82.7026 65.0104 82.5214 65.5704 82.2092 65.9764C81.8971 66.3824 81.3369 66.584 80.5314 66.584V67.76H88.4912V66.1528C88.076 66.178 87.6663 66.1976 87.2621 66.2116C86.858 66.2256 86.4483 66.2452 86.0331 66.2704Z" fill="white"/>
<path d="M104.938 48.748C103.597 47.9388 102.095 47.5328 100.431 47.5328C99.2353 47.5328 98.1344 47.7344 97.1339 48.1404C96.1333 48.5464 95.2665 49.1148 94.5391 49.8456V38.164H93.4076C93.2264 38.346 92.9728 38.5168 92.6467 38.6736C92.3206 38.8304 91.8413 38.962 91.203 39.0656C90.5648 39.1692 89.6757 39.2224 88.5303 39.2224V40.8688C88.9985 40.8436 89.4611 40.8156 89.9154 40.7904C90.3697 40.7652 90.8324 40.7372 91.3006 40.712C91.2476 41.2356 91.217 41.6864 91.203 42.0644C91.1891 42.4424 91.1835 42.8428 91.1835 43.26L91.1055 67.76H92.4711L93.4076 65.996C94.2409 66.9368 95.1829 67.5696 96.2364 67.8972C97.2899 68.2248 98.2598 68.3872 99.1433 68.3872C100.913 68.3872 102.563 67.942 104.099 67.0544C105.634 66.1668 106.883 64.904 107.844 63.2716C108.806 61.6392 109.288 59.71 109.288 57.4896C109.288 55.4512 108.898 53.6872 108.118 52.1976C107.337 50.708 106.275 49.5572 104.938 48.748ZM104.508 62.8012C104.001 64.0416 103.293 65.016 102.382 65.7216C101.47 66.4272 100.392 66.78 99.1433 66.78C98.3629 66.78 97.6216 66.6372 96.9193 66.3488C96.2169 66.0604 95.6456 65.5452 95.2024 64.8004C94.7593 64.0556 94.5391 62.9916 94.5391 61.6056V51.688C95.1383 51.0076 95.8602 50.4672 96.7047 50.0612C97.5491 49.6552 98.402 49.4536 99.2604 49.4536C100.612 49.4536 101.732 49.84 102.616 50.61C103.499 51.38 104.163 52.4384 104.606 53.7852C105.049 55.132 105.269 56.6916 105.269 58.4696C105.269 60.116 105.016 61.5608 104.508 62.8012Z" fill="white"/>
<path d="M116.194 66.2704C116.272 65.8252 116.325 65.4024 116.35 64.9964C116.376 64.5904 116.389 64.1284 116.389 63.6048L116.35 38.164H115.219C115.038 38.346 114.784 38.5168 114.458 38.6736C114.132 38.8304 113.653 38.962 113.014 39.0656C112.376 39.1692 111.487 39.2224 110.342 39.2224V40.8688C110.81 40.8436 111.272 40.8156 111.727 40.7904C112.181 40.7652 112.644 40.7372 113.112 40.712C113.059 41.2356 113.028 41.6864 113.014 42.0644C113 42.4424 112.995 42.8428 112.995 43.26V61.8016C112.995 62.7424 112.97 63.5712 112.917 64.2908C112.864 65.0104 112.683 65.5704 112.371 65.9764C112.058 66.3824 111.498 66.584 110.693 66.584V67.76H118.653V66.1528C118.237 66.178 117.828 66.1976 117.423 66.2116C117.019 66.2256 116.61 66.2452 116.194 66.2704Z" fill="white"/>
<path d="M125.634 66.2704C125.712 65.8252 125.757 65.4024 125.771 64.9964C125.785 64.5904 125.79 64.1284 125.79 63.6048V47.768H124.659C124.477 47.95 124.224 48.1208 123.898 48.2776C123.572 48.4344 123.098 48.566 122.474 48.6696C121.849 48.7732 120.966 48.8264 119.82 48.8264V50.4728C120.289 50.4476 120.751 50.4196 121.205 50.3944C121.66 50.3692 122.122 50.3412 122.591 50.316C122.538 50.8396 122.499 51.2904 122.474 51.6684C122.448 52.0464 122.435 52.4468 122.435 52.864V61.8016C122.435 62.7424 122.409 63.5712 122.357 64.2908C122.304 65.0104 122.122 65.5704 121.81 65.9764C121.498 66.3824 120.938 66.584 120.132 66.584V67.76H128.092V66.1528C127.677 66.178 127.267 66.1976 126.863 66.2116C126.462 66.2256 126.052 66.2452 125.634 66.2704Z" fill="white"/>
<path d="M123.878 43.8872C124.45 43.8872 124.951 43.666 125.38 43.2208C125.81 42.7756 126.024 42.2268 126.024 41.5744C126.024 40.922 125.824 40.3648 125.42 39.9084C125.015 39.452 124.517 39.2224 123.917 39.2224C123.371 39.2224 122.883 39.452 122.454 39.9084C122.025 40.3648 121.81 40.922 121.81 41.5744C121.81 42.2268 122.019 42.7756 122.435 43.2208C122.853 43.666 123.332 43.8872 123.878 43.8872Z" fill="white"/>
<path d="M144.168 48.846C142.685 47.9696 141.032 47.5328 139.213 47.5328C137.365 47.5328 135.701 48.0088 134.218 48.9636C132.735 49.9184 131.565 51.2176 130.707 52.864C129.848 54.5104 129.419 56.3668 129.419 58.4304C129.419 60.3652 129.854 62.0816 130.726 63.5852C131.598 65.0888 132.774 66.2648 134.257 67.1132C135.74 67.9616 137.393 68.3872 139.213 68.3872C141.06 68.3872 142.724 67.9028 144.207 66.9368C145.69 65.9708 146.866 64.6576 147.738 62.9972C148.608 61.3368 149.045 59.5028 149.045 57.4896C149.045 55.5828 148.602 53.8832 147.719 52.3936C146.835 50.904 145.651 49.7224 144.168 48.846ZM144.539 62.5856C144.187 63.84 143.608 64.8592 142.802 65.6432C141.997 66.4272 140.904 66.8192 139.525 66.8192C138.145 66.8192 137.002 66.3628 136.091 65.4472C135.18 64.5316 134.505 63.35 134.062 61.8996C133.619 60.4492 133.399 58.9148 133.399 57.2936C133.399 55.8572 133.599 54.5104 134.004 53.256C134.408 52.0016 135.038 50.9824 135.896 50.1984C136.754 49.4144 137.861 49.0224 139.213 49.0224C140.252 49.0224 141.144 49.2968 141.885 49.8456C142.627 50.3944 143.231 51.1336 143.7 52.0604C144.168 52.9872 144.513 54.0204 144.734 55.1572C144.954 56.294 145.065 57.4504 145.065 58.6264C145.065 60.0124 144.89 61.3312 144.539 62.5856Z" fill="white"/>
<path d="M162.975 63.8008C162.482 64.5316 161.916 65.1084 161.278 65.5256C160.639 65.9428 159.956 66.1528 159.229 66.1528C158.527 66.1528 157.955 65.9428 157.512 65.5256C157.069 65.1084 156.751 64.4868 156.556 63.6636C156.361 62.8404 156.264 61.8408 156.264 60.6648L156.342 49.7672L162.897 49.6888V48.16H156.342V42.672H155.015C154.806 43.666 154.424 44.5788 153.864 45.416C153.304 46.2532 152.674 46.9112 151.972 47.3956C151.269 47.88 150.581 48.1348 149.904 48.16V49.8456L152.908 49.8064L152.83 61.1744C152.83 62.7424 152.986 64.0024 153.298 64.9572C153.61 65.912 154.034 66.6372 154.566 67.1328C155.099 67.6284 155.678 67.9616 156.303 68.1324C156.927 68.3032 157.537 68.3872 158.137 68.3872C158.449 68.3872 158.825 68.3536 159.268 68.2892C159.711 68.2248 160.191 68.068 160.712 67.8188C161.233 67.5696 161.771 67.1972 162.331 66.7016C162.891 66.206 163.457 65.5256 164.028 64.6632L162.975 63.8008Z" fill="white"/>
<path d="M182.367 66.2704C182.445 65.8252 182.49 65.4024 182.504 64.9964C182.518 64.5904 182.523 64.1284 182.523 63.6048L182.484 56.3136C182.459 53.3092 181.943 51.0944 180.943 49.6692C179.942 48.244 178.309 47.5328 176.046 47.5328C175.319 47.5328 174.569 47.6504 173.802 47.8856C173.036 48.1208 172.295 48.4288 171.578 48.8068C170.862 49.1848 170.218 49.6244 169.647 50.12V38.164H168.515C168.334 38.346 168.081 38.5168 167.755 38.6736C167.428 38.8304 166.949 38.962 166.311 39.0656C165.673 39.1692 164.784 39.2224 163.638 39.2224V40.8688C164.106 40.8436 164.569 40.8156 165.023 40.7904C165.478 40.7652 165.94 40.7372 166.408 40.712C166.355 41.2356 166.325 41.6864 166.311 42.0644C166.297 42.4424 166.291 42.8428 166.291 43.26V61.8016C166.291 62.7424 166.258 63.5712 166.194 64.2908C166.13 65.0104 165.94 65.5704 165.628 65.9764C165.316 66.3824 164.756 66.584 163.95 66.584V67.76H171.91V66.1528C171.495 66.178 171.085 66.1976 170.681 66.2116C170.277 66.2256 169.867 66.2452 169.452 66.2704C169.53 65.8252 169.583 65.4024 169.608 64.9964C169.633 64.5904 169.647 64.1284 169.647 63.6048V52.0408C170.218 51.3352 170.968 50.7612 171.891 50.316C172.813 49.8708 173.758 49.6356 174.719 49.6104C176.255 49.5852 177.378 50.134 178.094 51.2568C178.811 52.3796 179.168 54.0652 179.168 56.3136V61.8016C179.168 62.7424 179.142 63.5712 179.089 64.2908C179.037 65.0104 178.855 65.5704 178.543 65.9764C178.231 66.3824 177.671 66.584 176.865 66.584V67.76H184.825V66.1528C184.41 66.178 184 66.1976 183.596 66.2116C183.192 66.2256 182.782 66.2452 182.367 66.2704Z" fill="white"/>
<path d="M193.058 40.8688L197.428 45.024L198.521 44.1224L195.243 38.8304C194.878 38.2284 194.516 37.884 194.151 37.7916C193.785 37.6992 193.473 37.7132 193.214 37.8308C192.955 37.9484 192.785 38.0324 192.707 38.0856C192.604 38.164 192.478 38.3348 192.336 38.5952C192.194 38.8556 192.155 39.1832 192.219 39.5752C192.283 39.9672 192.565 40.3984 193.058 40.8688Z" fill="white"/>
<path d="M201.369 64.7808C200.642 65.2764 199.853 65.6684 199.008 65.9568C198.164 66.2452 197.336 66.388 196.531 66.388C195.023 66.388 193.786 65.9764 192.824 65.1532C191.862 64.33 191.166 63.168 190.737 61.6644C190.307 60.1608 190.093 58.4164 190.093 56.4312L203.827 56.196C203.827 54.7316 203.618 53.4576 203.203 52.374C202.788 51.2904 202.214 50.3888 201.486 49.6692C200.759 48.9496 199.92 48.4148 198.969 48.062C198.019 47.7092 196.999 47.5328 195.906 47.5328C193.956 47.5328 192.239 48.0228 190.756 49.0028C189.273 49.9828 188.122 51.2708 187.303 52.864C186.483 54.4572 186.074 56.1708 186.074 57.9992C186.074 60.116 186.489 61.9528 187.322 63.5068C188.156 65.0608 189.293 66.2648 190.737 67.1132C192.18 67.9616 193.799 68.3872 195.594 68.3872C196.478 68.3872 197.442 68.2444 198.482 67.956C199.521 67.6676 200.536 67.1972 201.525 66.5448C202.515 65.8924 203.359 65.016 204.061 63.9184L203.125 63.1344C202.682 63.7364 202.096 64.2852 201.369 64.7808ZM192.18 50.414C193.181 49.5124 194.438 49.0616 195.945 49.0616C196.96 49.0616 197.779 49.3416 198.404 49.9044C199.028 50.4672 199.477 51.184 199.75 52.0604C200.023 52.9368 200.159 53.844 200.159 54.7848H190.21C190.522 52.7716 191.18 51.3156 192.18 50.414Z" fill="white"/>
<path d="M223.454 76.2664C223.532 75.8212 223.576 75.3984 223.59 74.9924C223.604 74.5864 223.61 74.1244 223.61 73.6008L223.571 47.768H222.478C222.269 48.0032 222.043 48.1656 221.795 48.258C221.547 48.3504 221.282 48.3952 220.995 48.3952C220.346 48.3952 219.571 48.2524 218.674 47.964C217.776 47.6756 216.781 47.5328 215.689 47.5328C213.841 47.5328 212.158 47.9836 210.636 48.8852C209.114 49.7868 207.905 51.0468 207.007 52.668C206.11 54.2892 205.661 56.196 205.661 58.3912C205.661 60.4044 206.051 62.16 206.832 63.6636C207.612 65.1672 208.665 66.3292 209.992 67.1524C211.319 67.9756 212.788 68.3872 214.401 68.3872C215.65 68.3872 216.767 68.1716 217.757 67.7404C218.746 67.3092 219.577 66.7016 220.254 65.9176V71.7976C220.254 72.7384 220.229 73.5672 220.176 74.2868C220.123 75.0064 219.942 75.5664 219.63 75.9724C219.318 76.3784 218.757 76.58 217.952 76.58V77.756H225.912V76.1488C225.496 76.174 225.087 76.1936 224.683 76.2076C224.278 76.2188 223.869 76.2384 223.454 76.2664ZM220.254 63.9576C219.733 64.6884 219.078 65.2904 218.284 65.7608C217.489 66.2312 216.664 66.4664 215.806 66.4664C214.532 66.4664 213.431 66.0604 212.509 65.2512C211.586 64.442 210.884 63.3556 210.402 61.9976C209.92 60.6396 209.68 59.122 209.68 57.4504C209.68 55.7508 209.928 54.2696 210.421 53.0012C210.915 51.7328 211.617 50.7472 212.528 50.0416C213.44 49.336 214.518 48.9832 215.767 48.9832C216.884 48.9832 217.771 49.1596 218.42 49.5124C219.069 49.8652 219.538 50.3888 219.825 51.0804C220.112 51.772 220.254 52.6428 220.254 53.6872V63.9576Z" fill="white"/>
<path d="M244.289 66.2704C244.342 65.7468 244.381 65.1084 244.406 64.3496C244.432 63.5908 244.445 63.0028 244.445 62.5856L244.484 47.768H243.353C243.066 48.0284 242.67 48.272 242.163 48.4932C241.656 48.7144 240.842 48.8264 239.724 48.8264H238.515V50.4336C238.983 50.4084 239.451 50.3888 239.919 50.3748C240.388 50.3608 240.856 50.3412 241.324 50.316C241.246 50.7612 241.193 51.212 241.168 51.6684C241.143 52.1248 241.129 52.668 241.129 53.2952V63.3696C240.583 64.1788 239.861 64.8788 238.963 65.4668C238.066 66.0548 237.124 66.3628 236.135 66.388C234.599 66.4132 233.515 65.8728 232.876 64.7612C232.238 63.6496 231.921 61.9724 231.921 59.724V47.768H230.789C230.502 48.0284 230.106 48.272 229.599 48.4932C229.092 48.7144 228.278 48.8264 227.16 48.8264H225.951V50.4336C226.394 50.4084 226.843 50.3888 227.297 50.3748C227.751 50.3608 228.2 50.3412 228.643 50.316C228.565 50.7612 228.52 51.1924 228.506 51.6096C228.492 52.0268 228.487 52.4468 228.487 52.864V59.8416C228.487 61.9836 228.727 63.6832 229.209 64.9376C229.691 66.192 230.404 67.0796 231.355 67.6032C232.305 68.1268 233.481 68.3872 234.886 68.3872C236.031 68.3872 237.174 68.0932 238.32 67.5052C239.465 66.9172 240.44 66.2172 241.246 65.408C241.271 65.7468 241.304 66.1136 241.343 66.5056C241.383 66.8976 241.441 67.3148 241.519 67.76H247.099V66.1136C246.631 66.1388 246.162 66.1668 245.694 66.192C245.226 66.2172 244.758 66.2452 244.289 66.2704Z" fill="white"/>
<path d="M263.604 64.7808C262.876 65.2764 262.087 65.6684 261.243 65.9568C260.398 66.2452 259.571 66.388 258.765 66.388C257.257 66.388 256.02 65.9764 255.059 65.1532C254.097 64.33 253.4 63.168 252.971 61.6644C252.542 60.1608 252.327 58.4164 252.327 56.4312L266.062 56.196C266.062 54.7316 265.853 53.4576 265.437 52.374C265.022 51.2904 264.448 50.3888 263.721 49.6692C262.993 48.9496 262.154 48.4148 261.204 48.062C260.254 47.7092 259.233 47.5328 258.141 47.5328C256.19 47.5328 254.473 48.0228 252.991 49.0028C251.508 49.9828 250.357 51.2708 249.537 52.864C248.718 54.4572 248.308 56.1708 248.308 57.9992C248.308 60.116 248.724 61.9528 249.557 63.5068C250.39 65.0608 251.527 66.2648 252.971 67.1132C254.415 67.9616 256.034 68.3872 257.829 68.3872C258.712 68.3872 259.677 68.2444 260.716 67.956C261.756 67.6676 262.77 67.1972 263.76 66.5448C264.749 65.8924 265.594 65.016 266.296 63.9184L265.359 63.1344C264.916 63.7364 264.331 64.2852 263.604 64.7808ZM254.415 50.414C255.415 49.5124 256.672 49.0616 258.18 49.0616C259.194 49.0616 260.014 49.3416 260.638 49.9044C261.262 50.4672 261.711 51.184 261.984 52.0604C262.257 52.9368 262.394 53.844 262.394 54.7848H252.444C252.756 52.7716 253.411 51.3156 254.415 50.414Z" fill="white"/>
<path d="M281.825 59.7436C281.226 58.9988 280.46 58.3772 279.523 57.8816C278.587 57.386 277.625 56.9268 276.636 56.5096C275.724 56.1428 274.866 55.7648 274.061 55.3728C273.255 54.9808 272.597 54.516 272.09 53.9812C271.583 53.4464 271.329 52.7716 271.329 51.9624C271.329 51.1784 271.667 50.4868 272.344 49.8848C273.021 49.2828 273.957 48.9832 275.153 48.9832C276.271 48.9832 277.182 49.2632 277.884 49.826C278.587 50.3888 279.119 51.0944 279.484 51.9428C279.849 52.7912 280.055 53.6732 280.108 54.5888H281.357V47.7288H279.718L279.796 49.2184C278.991 48.566 278.158 48.1208 277.299 47.8856C276.441 47.6504 275.66 47.5328 274.958 47.5328C273.631 47.5328 272.539 47.7232 271.68 48.1012C270.822 48.4792 270.145 48.9636 269.651 49.5516C269.158 50.1396 268.807 50.7612 268.598 51.4136C268.389 52.066 268.286 52.668 268.286 53.2168C268.286 54.2108 268.481 55.0452 268.871 55.7256C269.261 56.406 269.788 56.98 270.451 57.4504C271.115 57.9208 271.837 58.3268 272.617 58.6656C273.397 59.0044 274.178 59.332 274.958 59.6456C275.763 59.9592 276.519 60.298 277.221 60.6648C277.923 61.0316 278.489 61.4544 278.918 61.9388C279.348 62.4232 279.562 63.0308 279.562 63.7616C279.562 64.4672 279.342 65.0496 278.899 65.506C278.456 65.9624 277.909 66.304 277.26 66.5252C276.611 66.7464 275.947 66.8584 275.27 66.8584C274.281 66.8584 273.358 66.6232 272.5 66.1528C271.641 65.6824 270.939 65.0216 270.393 64.1732C269.847 63.3248 269.548 62.3644 269.495 61.292H268.286L268.52 68.0344H270.159L270.003 66.6624C270.652 67.1076 271.485 67.5052 272.5 67.858C273.514 68.2108 274.671 68.3872 275.972 68.3872C277.09 68.3872 278.163 68.1856 279.192 67.7796C280.22 67.3736 281.064 66.7408 281.728 65.8784C282.391 65.016 282.723 63.9324 282.723 62.6248C282.723 61.4488 282.422 60.4884 281.825 59.7436Z" fill="white"/>
</svg>
