<svg width="283" height="78" viewBox="0 0 283 78" fill="none" xmlns="http://www.w3.org/2000/svg">
<path d="M20.9669 71.2735C32.5052 71.2735 41.9338 61.3598 41.9338 48.9363L41.9421 0.877443V0H40.936H29.6262H28.6229V0.877443V51.2009C28.6229 56.5965 24.7377 59.1063 20.9725 59.1063C17.2044 59.1063 13.322 56.5965 13.322 51.2009V0.877443V0H12.3187H1.00612H0V0.877443L0.0055742 48.9363C0.0055742 61.3625 9.43133 71.2735 20.9669 71.2735Z" fill="#0057AC"/>
<path d="M21.633 55.3318H20.2617V2.20612H21.633V55.3318ZM25.245 54.1814H23.8737V2.22004H25.245V54.1814ZM17.9652 54.1814H16.594V2.20612H17.9652V54.1814Z" fill="#4998D3"/>
<path d="M76.8052 24.1784C75.9607 25.1924 74.7177 25.7133 73.0789 25.7383L65.7825 25.8553C65.8354 25.5183 65.8661 25.1005 65.88 24.6074C65.8939 24.1144 65.8995 23.5155 65.8995 22.8135V6.08361C65.8995 5.14767 65.919 4.32872 65.958 3.62677C65.9971 2.92481 66.2061 2.36492 66.5823 1.94987C66.9586 1.53483 67.6303 1.31199 68.5918 1.28692V0H59.8126V1.71589C60.2808 1.69082 60.7491 1.66296 61.2173 1.63789C61.6855 1.61283 62.1537 1.58497 62.622 1.5599C62.5969 1.94987 62.569 2.38442 62.5439 2.86632C62.5188 3.34821 62.5049 3.84682 62.5049 4.36772V21.2146C62.5049 22.1255 62.4854 22.9361 62.4464 23.652C62.4074 24.3679 62.2067 24.925 61.8416 25.3289C61.4765 25.7328 60.802 25.9584 59.8126 26.0113V27.2982H79.1658L79.3999 19.2258H78.0733C78.0733 21.5127 77.6497 23.1645 76.8052 24.1784Z" fill="black"/>
<path d="M84.9601 26.6548C86.4038 27.4988 88.023 27.9222 89.8179 27.9222C90.7014 27.9222 91.6657 27.7801 92.7053 27.4932C93.7448 27.2063 94.7593 26.7383 95.7487 26.0893C96.7381 25.4403 97.5826 24.5684 98.2849 23.4765L97.3485 22.6965C96.9053 23.2954 96.32 23.8414 95.5926 24.3344C94.8652 24.8275 94.0765 25.2174 93.232 25.5044C92.3875 25.7913 91.5598 25.9333 90.7543 25.9333C89.2465 25.9333 88.0091 25.5239 87.0476 24.7049C86.086 23.886 85.3893 22.73 84.9601 21.2341C84.5309 19.7383 84.3163 18.0029 84.3163 16.028L98.0508 15.794C98.0508 14.3371 97.8418 13.0697 97.4265 11.9917C97.0112 10.9137 96.4371 10.0168 95.7097 9.3009C94.9823 8.58502 94.1434 8.05298 93.193 7.702C92.2426 7.35103 91.2225 7.17554 90.13 7.17554C88.1791 7.17554 86.4623 7.66301 84.9796 8.63794C83.4969 9.61288 82.3458 10.8942 81.5264 12.4792C80.7071 14.0642 80.2974 15.7689 80.2974 17.5879C80.2974 19.6937 80.7126 21.521 81.546 23.067C82.3765 24.613 83.5164 25.8108 84.9601 26.6548ZM86.4038 10.0419C87.4043 9.14491 88.6613 8.69644 90.1691 8.69644C91.1835 8.69644 92.0029 8.97499 92.6272 9.53488C93.2515 10.0948 93.7002 10.8079 93.9734 11.6797C94.2465 12.5516 94.3831 13.4541 94.3831 14.3901H84.4333C84.7455 12.3873 85.4004 10.9388 86.4038 10.0419Z" fill="black"/>
<path d="M109.249 26.0698C108.6 26.2899 107.936 26.4013 107.259 26.4013C106.27 26.4013 105.347 26.1673 104.489 25.6993C103.63 25.2314 102.928 24.574 102.382 23.73C101.836 22.886 101.537 21.9305 101.484 20.8637H100.275L100.509 27.5712H102.148L101.992 26.2063C102.641 26.6492 103.474 27.0448 104.489 27.3957C105.503 27.7467 106.66 27.9222 107.961 27.9222C109.079 27.9222 110.152 27.7216 111.181 27.3177C112.209 26.9138 113.053 26.2843 113.717 25.4264C114.38 24.5684 114.712 23.4904 114.712 22.1896C114.712 21.0196 114.413 20.0642 113.814 19.3233C113.215 18.5823 112.449 17.9639 111.512 17.4709C110.576 16.9778 109.614 16.521 108.625 16.106C107.713 15.7411 106.855 15.365 106.05 14.975C105.244 14.5851 104.586 14.1227 104.079 13.5906C103.572 13.0586 103.318 12.3873 103.318 11.5823C103.318 10.8023 103.656 10.1143 104.333 9.51538C105.01 8.91649 105.946 8.61844 107.142 8.61844C108.26 8.61844 109.171 8.897 109.873 9.45689C110.576 10.0168 111.108 10.7187 111.473 11.5628C111.838 12.4068 112.044 13.2842 112.097 14.1951H113.346V7.37052H111.707L111.785 8.85243C110.98 8.2034 110.147 7.7605 109.288 7.52651C108.43 7.29253 107.649 7.17554 106.947 7.17554C105.62 7.17554 104.528 7.36495 103.669 7.741C102.811 8.11705 102.134 8.59895 101.64 9.18391C101.147 9.76887 100.796 10.3873 100.587 11.0363C100.378 11.6853 100.275 12.2842 100.275 12.8302C100.275 13.819 100.47 14.6491 100.86 15.326C101.25 16.0029 101.777 16.5739 102.44 17.0419C103.104 17.5099 103.826 17.9138 104.606 18.2508C105.386 18.5879 106.167 18.9138 106.947 19.2258C107.752 19.5377 108.508 19.8748 109.21 20.2397C109.912 20.6046 110.478 21.0252 110.907 21.5071C111.337 21.989 111.551 22.5935 111.551 23.3205C111.551 24.0224 111.331 24.6018 110.888 25.0559C110.445 25.5099 109.898 25.8498 109.249 26.0698Z" fill="black"/>
<path d="M74.386 48.4962C73.0455 47.6912 71.5433 47.2873 69.8794 47.2873C68.6838 47.2873 67.5829 47.4878 66.5823 47.8917C65.5818 48.2956 64.715 48.8611 63.9876 49.5881V37.9669H62.8561C62.6749 38.1479 62.4213 38.3178 62.0952 38.4738C61.7691 38.6298 61.2898 38.7607 60.6515 38.8638C60.0133 38.9669 59.1242 39.0198 57.9788 39.0198V40.6577C58.447 40.6326 58.9096 40.6048 59.3639 40.5797C59.8182 40.5546 60.2809 40.5268 60.7491 40.5017C60.6961 41.0226 60.6655 41.4711 60.6515 41.8471C60.6376 42.2232 60.632 42.6215 60.632 43.0365L60.554 67.41H61.9196L62.8561 65.6551C63.6894 66.591 64.6314 67.2205 65.6849 67.5464C66.7384 67.8724 67.7083 68.0339 68.5918 68.0339C70.3616 68.0339 72.0115 67.591 73.5471 66.708C75.0828 65.825 76.3314 64.5687 77.2929 62.9447C78.2544 61.3208 78.7366 59.4015 78.7366 57.1926C78.7366 55.1647 78.3464 53.4099 77.5661 51.928C76.7857 50.4461 75.7266 49.3012 74.386 48.4962ZM73.9568 62.4768C73.4496 63.7108 72.7417 64.6801 71.8303 65.3821C70.919 66.084 69.8404 66.435 68.5918 66.435C67.8114 66.435 67.0701 66.293 66.3677 66.0061C65.6654 65.7191 65.0941 65.2066 64.6509 64.4656C64.2078 63.7247 63.9876 62.6662 63.9876 61.2874V51.421C64.5868 50.7441 65.3087 50.2065 66.1531 49.8026C66.9976 49.3987 67.8504 49.1981 68.7089 49.1981C70.0606 49.1981 71.181 49.5825 72.0644 50.3486C72.9479 51.1146 73.6112 52.1675 74.0544 53.5074C74.4975 54.8472 74.7177 56.3987 74.7177 58.1676C74.7177 59.8054 74.4641 61.2428 73.9568 62.4768Z" fill="black"/>
<path d="M84.3162 39.0198C83.77 39.0198 83.2822 39.2482 82.853 39.7022C82.4238 40.1563 82.2092 40.7106 82.2092 41.3596C82.2092 42.0087 82.4183 42.5546 82.8335 42.9975C83.2488 43.4404 83.7309 43.6605 84.2772 43.6605C84.8485 43.6605 85.3502 43.4404 85.7794 42.9975C86.2086 42.5546 86.4232 42.0087 86.4232 41.3596C86.4232 40.7106 86.2226 40.1563 85.8184 39.7022C85.4143 39.2482 84.9127 39.0198 84.3162 39.0198Z" fill="black"/>
<path d="M86.0331 65.9281C86.1111 65.4852 86.1557 65.0645 86.1696 64.6606C86.1836 64.2567 86.1891 63.7971 86.1891 63.2762V47.5212H85.0576C84.8764 47.7023 84.6228 47.8722 84.2967 48.0282C83.9707 48.1842 83.4969 48.3151 82.8726 48.4182C82.2483 48.5212 81.3648 48.5742 80.2193 48.5742V50.2121C80.6875 50.187 81.1502 50.1591 81.6045 50.1341C82.0587 50.109 82.5214 50.0811 82.9896 50.0561C82.9367 50.577 82.8976 51.0254 82.8726 51.4015C82.8475 51.7775 82.8335 52.1759 82.8335 52.5909V61.4823C82.8335 62.4183 82.8085 63.2428 82.7555 63.9587C82.7026 64.6746 82.5214 65.2317 82.2092 65.6356C81.8971 66.0395 81.3369 66.24 80.5314 66.24V67.41H88.4912V65.8111C88.076 65.8361 87.6663 65.8556 87.2621 65.8696C86.858 65.8835 86.4483 65.903 86.0331 65.9281Z" fill="black"/>
<path d="M104.938 48.4962C103.597 47.6912 102.095 47.2873 100.431 47.2873C99.2353 47.2873 98.1344 47.4878 97.1339 47.8917C96.1333 48.2956 95.2665 48.8611 94.5391 49.5881V37.9669H93.4076C93.2264 38.1479 92.9728 38.3178 92.6467 38.4738C92.3206 38.6298 91.8413 38.7607 91.203 38.8638C90.5648 38.9669 89.6757 39.0198 88.5303 39.0198V40.6577C88.9985 40.6326 89.4611 40.6048 89.9154 40.5797C90.3697 40.5546 90.8324 40.5268 91.3006 40.5017C91.2476 41.0226 91.217 41.4711 91.203 41.8471C91.1891 42.2232 91.1835 42.6215 91.1835 43.0365L91.1055 67.41H92.4711L93.4076 65.6551C94.2409 66.591 95.1829 67.2205 96.2364 67.5464C97.2899 67.8724 98.2598 68.0339 99.1433 68.0339C100.913 68.0339 102.563 67.591 104.099 66.708C105.634 65.825 106.883 64.5687 107.844 62.9447C108.806 61.3208 109.288 59.4015 109.288 57.1926C109.288 55.1647 108.898 53.4099 108.118 51.928C107.337 50.4461 106.275 49.3012 104.938 48.4962ZM104.508 62.4768C104.001 63.7108 103.293 64.6801 102.382 65.3821C101.47 66.084 100.392 66.435 99.1433 66.435C98.3629 66.435 97.6216 66.293 96.9193 66.0061C96.2169 65.7191 95.6456 65.2066 95.2024 64.4656C94.7593 63.7247 94.5391 62.6662 94.5391 61.2874V51.421C95.1383 50.7441 95.8602 50.2065 96.7047 49.8026C97.5491 49.3987 98.402 49.1981 99.2604 49.1981C100.612 49.1981 101.732 49.5825 102.616 50.3486C103.499 51.1146 104.163 52.1675 104.606 53.5074C105.049 54.8472 105.269 56.3987 105.269 58.1676C105.269 59.8054 105.016 61.2428 104.508 62.4768Z" fill="black"/>
<path d="M116.194 65.9281C116.272 65.4852 116.325 65.0645 116.35 64.6606C116.376 64.2567 116.389 63.7971 116.389 63.2762L116.35 37.9669H115.219C115.038 38.1479 114.784 38.3178 114.458 38.4738C114.132 38.6298 113.653 38.7607 113.014 38.8638C112.376 38.9669 111.487 39.0198 110.342 39.0198V40.6577C110.81 40.6326 111.272 40.6048 111.727 40.5797C112.181 40.5546 112.644 40.5268 113.112 40.5017C113.059 41.0226 113.028 41.4711 113.014 41.8471C113 42.2232 112.995 42.6215 112.995 43.0365V61.4823C112.995 62.4183 112.97 63.2428 112.917 63.9587C112.864 64.6746 112.683 65.2317 112.371 65.6356C112.058 66.0395 111.498 66.24 110.693 66.24V67.41H118.653V65.8111C118.237 65.8361 117.828 65.8556 117.423 65.8696C117.019 65.8835 116.61 65.903 116.194 65.9281Z" fill="black"/>
<path d="M125.634 65.9281C125.712 65.4852 125.757 65.0645 125.771 64.6606C125.785 64.2567 125.79 63.7971 125.79 63.2762V47.5212H124.659C124.477 47.7023 124.224 47.8722 123.898 48.0282C123.572 48.1842 123.098 48.3151 122.474 48.4182C121.849 48.5212 120.966 48.5742 119.82 48.5742V50.2121C120.289 50.187 120.751 50.1591 121.205 50.1341C121.66 50.109 122.122 50.0811 122.591 50.0561C122.538 50.577 122.499 51.0254 122.474 51.4015C122.448 51.7775 122.435 52.1759 122.435 52.5909V61.4823C122.435 62.4183 122.409 63.2428 122.357 63.9587C122.304 64.6746 122.122 65.2317 121.81 65.6356C121.498 66.0395 120.938 66.24 120.132 66.24V67.41H128.092V65.8111C127.677 65.8361 127.267 65.8556 126.863 65.8696C126.462 65.8835 126.052 65.903 125.634 65.9281Z" fill="black"/>
<path d="M123.878 43.6605C124.45 43.6605 124.951 43.4404 125.38 42.9975C125.81 42.5546 126.024 42.0087 126.024 41.3596C126.024 40.7106 125.824 40.1563 125.419 39.7022C125.015 39.2482 124.516 39.0198 123.917 39.0198C123.371 39.0198 122.883 39.2482 122.454 39.7022C122.025 40.1563 121.81 40.7106 121.81 41.3596C121.81 42.0087 122.019 42.5546 122.435 42.9975C122.853 43.4404 123.332 43.6605 123.878 43.6605Z" fill="black"/>
<path d="M144.168 48.5936C142.685 47.7218 141.032 47.2872 139.213 47.2872C137.365 47.2872 135.701 47.7608 134.218 48.7106C132.735 49.6605 131.565 50.953 130.707 52.5909C129.848 54.2288 129.419 56.0756 129.419 58.1285C129.419 60.0533 129.854 61.7609 130.726 63.2567C131.598 64.7525 132.774 65.9225 134.257 66.7665C135.74 67.6105 137.393 68.0339 139.213 68.0339C141.06 68.0339 142.724 67.552 144.207 66.591C145.69 65.63 146.866 64.3236 147.738 62.6717C148.608 61.0199 149.045 59.1954 149.045 57.1926C149.045 55.2956 148.602 53.6048 147.719 52.1229C146.835 50.641 145.651 49.4655 144.168 48.5936ZM144.539 62.2623C144.187 63.5102 143.608 64.5241 142.802 65.3041C141.997 66.084 140.904 66.474 139.525 66.474C138.145 66.474 137.002 66.02 136.091 65.1091C135.18 64.1982 134.505 63.0227 134.062 61.5798C133.619 60.1369 133.399 58.6104 133.399 56.9976C133.399 55.5686 133.599 54.2288 134.004 52.9809C134.408 51.7329 135.038 50.719 135.896 49.9391C136.754 49.1591 137.861 48.7691 139.213 48.7691C140.252 48.7691 141.144 49.0421 141.885 49.5881C142.627 50.1341 143.231 50.8694 143.7 51.7914C144.168 52.7135 144.513 53.7413 144.734 54.8722C144.954 56.0032 145.065 57.1536 145.065 58.3235C145.065 59.7024 144.89 61.0143 144.539 62.2623Z" fill="black"/>
<path d="M162.975 63.4712C162.482 64.1982 161.916 64.772 161.278 65.1871C160.639 65.6021 159.956 65.811 159.229 65.811C158.527 65.811 157.955 65.6021 157.512 65.1871C157.069 64.772 156.751 64.1536 156.556 63.3347C156.361 62.5157 156.264 61.5213 156.264 60.3514L156.342 49.5101L162.897 49.4321V47.9112H156.342V42.4515H155.015C154.806 43.4404 154.424 44.3485 153.864 45.1814C153.304 46.0142 152.674 46.6688 151.972 47.1507C151.269 47.6326 150.581 47.8861 149.904 47.9112V49.5881L152.908 49.5491L152.83 60.8584C152.83 62.4183 152.986 63.6717 153.298 64.6216C153.61 65.5715 154.034 66.2929 154.566 66.786C155.099 67.279 155.678 67.6105 156.303 67.7804C156.927 67.9503 157.537 68.0339 158.137 68.0339C158.449 68.0339 158.825 68.0005 159.268 67.9364C159.711 67.8723 160.191 67.7163 160.712 67.4684C161.233 67.2205 161.771 66.85 162.331 66.357C162.891 65.864 163.457 65.1871 164.028 64.3291L162.975 63.4712Z" fill="black"/>
<path d="M182.367 65.9281C182.445 65.4852 182.49 65.0645 182.504 64.6606C182.518 64.2567 182.523 63.7971 182.523 63.2762L182.484 56.0227C182.459 53.0338 181.943 50.8305 180.943 49.4126C179.942 47.9948 178.309 47.2873 176.046 47.2873C175.319 47.2873 174.569 47.4042 173.802 47.6382C173.036 47.8722 172.295 48.1786 171.578 48.5547C170.862 48.9307 170.218 49.368 169.647 49.8611V37.9669H168.515C168.334 38.1479 168.081 38.3178 167.755 38.4738C167.428 38.6298 166.949 38.7607 166.311 38.8638C165.673 38.9669 164.784 39.0198 163.638 39.0198V40.6577C164.106 40.6326 164.569 40.6048 165.023 40.5797C165.478 40.5546 165.94 40.5268 166.408 40.5017C166.355 41.0226 166.325 41.4711 166.311 41.8471C166.297 42.2232 166.291 42.6215 166.291 43.0365V61.4823C166.291 62.4183 166.258 63.2428 166.194 63.9587C166.13 64.6746 165.94 65.2317 165.628 65.6356C165.316 66.0395 164.756 66.24 163.95 66.24V67.41H171.91V65.8111C171.495 65.8361 171.085 65.8556 170.681 65.8696C170.277 65.8835 169.867 65.903 169.452 65.9281C169.53 65.4852 169.583 65.0645 169.608 64.6606C169.633 64.2567 169.647 63.7971 169.647 63.2762V51.772C170.218 51.07 170.968 50.499 171.891 50.0561C172.813 49.6132 173.758 49.3792 174.719 49.3541C176.255 49.3291 177.378 49.875 178.094 50.992C178.811 52.109 179.168 53.7859 179.168 56.0227V61.4823C179.168 62.4183 179.142 63.2428 179.089 63.9587C179.037 64.6746 178.855 65.2317 178.543 65.6356C178.231 66.0395 177.671 66.24 176.865 66.24V67.41H184.825V65.8111C184.41 65.8361 184 65.8556 183.596 65.8696C183.192 65.8835 182.782 65.903 182.367 65.9281Z" fill="black"/>
<path d="M193.058 40.6577L197.428 44.7914L198.521 43.8944L195.243 38.6298C194.878 38.0309 194.516 37.6883 194.151 37.5964C193.785 37.5044 193.473 37.5184 193.214 37.6354C192.955 37.7523 192.785 37.8359 192.707 37.8888C192.604 37.9668 192.478 38.1367 192.336 38.3958C192.194 38.6549 192.155 38.9808 192.219 39.3707C192.283 39.7607 192.565 40.1897 193.058 40.6577Z" fill="black"/>
<path d="M201.369 64.4461C200.642 64.9392 199.853 65.3291 199.008 65.6161C198.164 65.903 197.336 66.045 196.531 66.045C195.023 66.045 193.785 65.6355 192.824 64.8166C191.862 63.9977 191.166 62.8417 190.736 61.3458C190.307 59.85 190.093 58.1146 190.093 56.1397L203.827 55.9057C203.827 54.4488 203.618 53.1814 203.203 52.1034C202.788 51.0254 202.213 50.1285 201.486 49.4126C200.759 48.6967 199.92 48.1647 198.969 47.8137C198.019 47.4627 196.999 47.2872 195.906 47.2872C193.955 47.2872 192.239 47.7747 190.756 48.7496C189.273 49.7246 188.122 51.0059 187.303 52.5909C186.483 54.1759 186.074 55.8806 186.074 57.6996C186.074 59.8054 186.489 61.6327 187.322 63.1787C188.156 64.7247 189.293 65.9225 190.736 66.7665C192.18 67.6105 193.799 68.0339 195.594 68.0339C196.478 68.0339 197.442 67.8918 198.482 67.6049C199.521 67.318 200.536 66.85 201.525 66.201C202.514 65.552 203.359 64.6801 204.061 63.5882L203.125 62.8082C202.682 63.4071 202.096 63.9531 201.369 64.4461ZM192.18 50.1535C193.181 49.2566 194.438 48.8081 195.945 48.8081C196.96 48.8081 197.779 49.0867 198.404 49.6466C199.028 50.2065 199.477 50.9196 199.75 51.7914C200.023 52.6633 200.159 53.5658 200.159 54.5018H190.21C190.522 52.499 191.18 51.0505 192.18 50.1535Z" fill="black"/>
<path d="M223.454 75.8724C223.532 75.4295 223.576 75.0089 223.59 74.605C223.604 74.2011 223.61 73.7415 223.61 73.2206L223.571 47.5212H222.478C222.269 47.7552 222.043 47.9168 221.795 48.0087C221.547 48.1006 221.282 48.1452 220.995 48.1452C220.346 48.1452 219.571 48.0031 218.674 47.7162C217.776 47.4293 216.781 47.2872 215.689 47.2872C213.841 47.2872 212.158 47.7357 210.636 48.6326C209.114 49.5296 207.905 50.7831 207.007 52.3959C206.11 54.0087 205.661 55.9057 205.661 58.0895C205.661 60.0923 206.051 61.8389 206.832 63.3347C207.612 64.8305 208.665 65.9865 209.992 66.8055C211.319 67.6244 212.788 68.0339 214.401 68.0339C215.65 68.0339 216.767 67.8194 217.757 67.3904C218.746 66.9615 219.577 66.357 220.254 65.5771V71.4267C220.254 72.3626 220.229 73.1871 220.176 73.903C220.123 74.6189 219.942 75.176 219.63 75.5799C219.318 75.9838 218.757 76.1844 217.952 76.1844V77.3543H225.912V75.7554C225.496 75.7805 225.087 75.8 224.683 75.8139C224.278 75.825 223.869 75.8445 223.454 75.8724ZM220.254 63.6272C219.733 64.3542 219.078 64.9531 218.284 65.4211C217.489 65.889 216.664 66.123 215.806 66.123C214.532 66.123 213.431 65.7191 212.509 64.9141C211.586 64.1091 210.884 63.0283 210.402 61.6773C209.92 60.3263 209.68 58.8166 209.68 57.1536C209.68 55.4628 209.928 53.9892 210.421 52.7274C210.915 51.4655 211.617 50.485 212.528 49.7831C213.44 49.0811 214.518 48.7301 215.767 48.7301C216.884 48.7301 217.771 48.9056 218.42 49.2566C219.069 49.6076 219.538 50.1285 219.825 50.8165C220.112 51.5045 220.254 52.3708 220.254 53.4098V63.6272Z" fill="black"/>
<path d="M244.289 65.9281C244.342 65.4072 244.381 64.7721 244.406 64.0172C244.432 63.2623 244.445 62.6773 244.445 62.2623L244.484 47.5212H243.353C243.066 47.7803 242.67 48.0226 242.163 48.2427C241.656 48.4627 240.842 48.5742 239.724 48.5742H238.515V50.1731C238.983 50.148 239.451 50.1285 239.919 50.1146C240.388 50.1006 240.856 50.0811 241.324 50.0561C241.246 50.499 241.193 50.9474 241.168 51.4015C241.143 51.8555 241.129 52.3959 241.129 53.0199V63.0422C240.583 63.8473 239.861 64.5436 238.963 65.1286C238.066 65.7136 237.124 66.02 236.135 66.045C234.599 66.0701 233.515 65.5325 232.876 64.4266C232.238 63.3208 231.921 61.6523 231.921 59.4155V47.5212H230.789C230.502 47.7803 230.106 48.0226 229.599 48.2427C229.092 48.4627 228.278 48.5742 227.16 48.5742H225.951V50.1731C226.394 50.148 226.843 50.1285 227.297 50.1146C227.751 50.1006 228.2 50.0811 228.643 50.0561C228.565 50.499 228.52 50.9279 228.506 51.343C228.492 51.758 228.487 52.1759 228.487 52.5909V59.5325C228.487 61.6634 228.727 63.3542 229.209 64.6021C229.691 65.8501 230.404 66.7331 231.355 67.254C232.305 67.7749 233.481 68.0339 234.886 68.0339C236.031 68.0339 237.174 67.7414 238.32 67.1565C239.465 66.5715 240.44 65.8751 241.246 65.0701C241.271 65.4072 241.304 65.7721 241.343 66.162C241.383 66.552 241.441 66.9671 241.519 67.41H247.099V65.7721C246.631 65.7971 246.162 65.825 245.694 65.8501C245.226 65.8751 244.758 65.903 244.289 65.9281Z" fill="black"/>
<path d="M263.604 64.4461C262.876 64.9392 262.087 65.3291 261.243 65.6161C260.398 65.903 259.571 66.045 258.765 66.045C257.257 66.045 256.02 65.6355 255.059 64.8166C254.097 63.9977 253.4 62.8417 252.971 61.3458C252.542 59.85 252.327 58.1146 252.327 56.1397L266.062 55.9057C266.062 54.4488 265.853 53.1814 265.437 52.1034C265.022 51.0254 264.448 50.1285 263.721 49.4126C262.993 48.6967 262.154 48.1647 261.204 47.8137C260.254 47.4627 259.233 47.2872 258.141 47.2872C256.19 47.2872 254.473 47.7747 252.991 48.7496C251.508 49.7246 250.357 51.0059 249.537 52.5909C248.718 54.1759 248.308 55.8806 248.308 57.6996C248.308 59.8054 248.724 61.6327 249.557 63.1787C250.39 64.7247 251.527 65.9225 252.971 66.7665C254.415 67.6105 256.034 68.0339 257.829 68.0339C258.712 68.0339 259.677 67.8918 260.716 67.6049C261.756 67.318 262.77 66.85 263.76 66.201C264.749 65.552 265.594 64.6801 266.296 63.5882L265.359 62.8082C264.916 63.4071 264.331 63.9531 263.604 64.4461ZM254.415 50.1535C255.415 49.2566 256.672 48.8081 258.18 48.8081C259.194 48.8081 260.014 49.0867 260.638 49.6466C261.262 50.2065 261.711 50.9196 261.984 51.7914C262.257 52.6633 262.394 53.5658 262.394 54.5018H252.444C252.756 52.499 253.411 51.0505 254.415 50.1535Z" fill="black"/>
<path d="M281.825 59.435C281.226 58.694 280.46 58.0756 279.523 57.5826C278.587 57.0895 277.625 56.6327 276.636 56.2177C275.724 55.8528 274.866 55.4767 274.06 55.0867C273.255 54.6968 272.597 54.2344 272.09 53.7023C271.583 53.1703 271.329 52.499 271.329 51.6939C271.329 50.914 271.666 50.226 272.344 49.6271C273.021 49.0282 273.957 48.7301 275.153 48.7301C276.271 48.7301 277.182 49.0087 277.884 49.5686C278.587 50.1285 279.119 50.8304 279.484 51.6744C279.849 52.5185 280.055 53.3959 280.108 54.3068H281.357V47.4822H279.718L279.796 48.9641C278.991 48.3151 278.157 47.8722 277.299 47.6382C276.441 47.4042 275.66 47.2872 274.958 47.2872C273.631 47.2872 272.539 47.4766 271.68 47.8527C270.822 48.2287 270.145 48.7106 269.651 49.2956C269.158 49.8806 268.807 50.499 268.598 51.148C268.389 51.797 268.286 52.3959 268.286 52.9419C268.286 53.9307 268.481 54.7608 268.871 55.4377C269.261 56.1146 269.788 56.6856 270.451 57.1536C271.115 57.6216 271.836 58.0255 272.617 58.3625C273.397 58.6996 274.178 59.0255 274.958 59.3375C275.763 59.6494 276.519 59.9865 277.221 60.3514C277.923 60.7163 278.489 61.1369 278.918 61.6188C279.348 62.1007 279.562 62.7052 279.562 63.4322C279.562 64.1341 279.342 64.7135 278.899 65.1676C278.456 65.6216 277.909 65.9615 277.26 66.1815C276.611 66.4016 275.947 66.513 275.27 66.513C274.281 66.513 273.358 66.279 272.5 65.811C271.641 65.3431 270.939 64.6857 270.393 63.8417C269.847 62.9976 269.548 62.0422 269.495 60.9754H268.286L268.52 67.6829H270.159L270.003 66.318C270.652 66.7609 271.485 67.1565 272.5 67.5074C273.514 67.8584 274.671 68.0339 275.972 68.0339C277.09 68.0339 278.163 67.8333 279.191 67.4294C280.22 67.0255 281.064 66.396 281.728 65.5381C282.391 64.6801 282.723 63.6021 282.723 62.3013C282.723 61.1313 282.422 60.1759 281.825 59.435Z" fill="black"/>
</svg>
