<svg width="305" height="61" viewBox="0 0 305 61" fill="none" xmlns="http://www.w3.org/2000/svg">
<path d="M11.5691 48.4859C17.9356 48.4859 23.1381 43.0158 23.1381 36.1608L23.1427 9.64297V9.15881H22.5876H16.3471H15.7935V9.64297V37.4103C15.7935 40.3875 13.6497 41.7723 11.5721 41.7723C9.49299 41.7723 7.3508 40.3875 7.3508 37.4103V9.64297V9.15881H6.79718H0.555155H0V9.64297L0.00307572 36.1608C0.00307572 43.0173 5.204 48.4859 11.5691 48.4859Z" fill="#0057AC"/>
<path d="M11.9366 39.6897H11.18V10.3761H11.9366V39.6897ZM13.9296 39.0549H13.173V10.3838H13.9296V39.0549ZM9.91281 39.0549H9.1562V10.3761H9.91281V39.0549Z" fill="#4998D3"/>
<path d="M42.3794 22.4999C41.9134 23.0594 41.2275 23.3468 40.3233 23.3607L36.2973 23.4252C36.3265 23.2392 36.3434 23.0087 36.3511 22.7366C36.3588 22.4646 36.3619 22.1341 36.3619 21.7468V12.5156C36.3619 11.9992 36.3726 11.5473 36.3942 11.16C36.4157 10.7727 36.531 10.4637 36.7386 10.2347C36.9462 10.0057 37.3168 9.88274 37.8474 9.86891V9.15881H33.0033V10.1056C33.2616 10.0918 33.52 10.0764 33.7783 10.0626C34.0367 10.0487 34.295 10.0334 34.5534 10.0195C34.5395 10.2347 34.5242 10.4745 34.5103 10.7404C34.4965 11.0063 34.4888 11.2814 34.4888 11.5688V20.8646C34.4888 21.3672 34.478 21.8144 34.4565 22.2094C34.435 22.6045 34.3242 22.9119 34.1228 23.1347C33.9213 23.3576 33.5492 23.4821 33.0033 23.5113V24.2214H43.6819L43.8111 19.7672H43.0791C43.0791 21.029 42.8453 21.9405 42.3794 22.4999Z" fill="black"/>
<path d="M46.879 23.8663C47.6756 24.332 48.5691 24.5657 49.5595 24.5657C50.047 24.5657 50.579 24.4873 51.1527 24.329C51.7263 24.1707 52.286 23.9124 52.832 23.5543C53.3779 23.1962 53.8438 22.7151 54.2314 22.1126L53.7147 21.6823C53.4702 22.0127 53.1472 22.314 52.7458 22.586C52.3445 22.8581 51.9093 23.0732 51.4433 23.2315C50.9773 23.3899 50.5206 23.4682 50.0762 23.4682C49.2442 23.4682 48.5614 23.2423 48.0309 22.7904C47.5003 22.3386 47.1159 21.7007 46.879 20.8753C46.6422 20.05 46.5238 19.0924 46.5238 18.0027L54.1022 17.8736C54.1022 17.0697 53.9869 16.3704 53.7577 15.7756C53.5286 15.1808 53.2118 14.6859 52.8104 14.2908C52.4091 13.8958 51.9462 13.6023 51.4218 13.4086C50.8974 13.2149 50.3345 13.1181 49.7317 13.1181C48.6552 13.1181 47.7079 13.3871 46.8898 13.925C46.0717 14.463 45.4366 15.17 44.9844 16.0446C44.5323 16.9191 44.3063 17.8597 44.3063 18.8634C44.3063 20.0254 44.5354 21.0336 44.9952 21.8867C45.4535 22.7397 46.0824 23.4006 46.879 23.8663ZM47.6756 14.6997C48.2277 14.2048 48.9213 13.9573 49.7532 13.9573C50.313 13.9573 50.7651 14.111 51.1096 14.42C51.4541 14.7289 51.7017 15.1224 51.8524 15.6034C52.0031 16.0845 52.0784 16.5825 52.0784 17.0989H46.5884C46.7606 15.9938 47.122 15.1946 47.6756 14.6997Z" fill="black"/>
<path d="M60.2812 23.5436C59.9229 23.665 59.5569 23.7265 59.1832 23.7265C58.6373 23.7265 58.1282 23.5974 57.6546 23.3391C57.1809 23.0809 56.7934 22.7182 56.492 22.2525C56.1906 21.7868 56.026 21.2596 55.9968 20.6709H55.3294L55.4586 24.372H56.3628L56.2767 23.6189C56.635 23.8633 57.0948 24.0815 57.6546 24.2752C58.2143 24.4688 58.8525 24.5657 59.5707 24.5657C60.1874 24.5657 60.7794 24.455 61.3469 24.2321C61.9144 24.0093 62.3803 23.6619 62.7463 23.1885C63.1123 22.7151 63.2953 22.1203 63.2953 21.4025C63.2953 20.757 63.1308 20.2298 62.8001 19.821C62.4695 19.4121 62.0466 19.0709 61.5299 18.7989C61.0132 18.5268 60.4826 18.2747 59.9367 18.0457C59.4338 17.8444 58.9602 17.6369 58.5158 17.4217C58.0713 17.2065 57.7084 16.9514 57.4285 16.6578C57.1486 16.3643 57.0087 15.9938 57.0087 15.5496C57.0087 15.1193 57.1948 14.7396 57.5685 14.4092C57.9422 14.0787 58.4589 13.9143 59.1186 13.9143C59.7353 13.9143 60.2381 14.068 60.6257 14.3769C61.0132 14.6859 61.3069 15.0732 61.5084 15.5389C61.7098 16.0046 61.8236 16.4887 61.8528 16.9913H62.5418V13.2257H61.6375L61.6806 14.0434C61.2362 13.6853 60.7764 13.4409 60.3027 13.3118C59.8291 13.1827 59.3985 13.1181 59.0109 13.1181C58.2789 13.1181 57.6761 13.2226 57.2025 13.4301C56.7288 13.6376 56.3551 13.9035 56.0829 14.2263C55.8107 14.5491 55.617 14.8903 55.5016 15.2484C55.3863 15.6065 55.3294 15.937 55.3294 16.2382C55.3294 16.7839 55.437 17.2419 55.6523 17.6154C55.8676 17.9889 56.1583 18.3039 56.5243 18.5622C56.8903 18.8204 57.2886 19.0432 57.7192 19.2292C58.1498 19.4152 58.5804 19.595 59.0109 19.7672C59.4554 19.9393 59.8721 20.1253 60.2597 20.3266C60.6472 20.528 60.9594 20.7601 61.1962 21.026C61.433 21.2919 61.5514 21.6254 61.5514 22.0265C61.5514 22.4139 61.4299 22.7336 61.1854 22.9841C60.9409 23.2346 60.6395 23.4221 60.2812 23.5436Z" fill="black"/>
<path d="M41.0445 35.9179C40.3048 35.4737 39.476 35.2508 38.5579 35.2508C37.8981 35.2508 37.2907 35.3615 36.7386 35.5844C36.1865 35.8072 35.7083 36.1193 35.3069 36.5204V30.1081H34.6826C34.5826 30.208 34.4427 30.3017 34.2627 30.3878C34.0828 30.4739 33.8183 30.5461 33.4661 30.603C33.114 30.6598 32.6234 30.689 31.9914 30.689V31.5928C32.2497 31.579 32.505 31.5636 32.7557 31.5498C33.0063 31.5359 33.2616 31.5206 33.52 31.5067C33.4907 31.7941 33.4738 32.0416 33.4661 32.2491C33.4584 32.4566 33.4554 32.6764 33.4554 32.9054L33.4123 46.3541H34.1658L34.6826 45.3858C35.1424 45.9022 35.6621 46.2496 36.2434 46.4294C36.8247 46.6092 37.3599 46.6984 37.8474 46.6984C38.8239 46.6984 39.7343 46.454 40.5816 45.9668C41.429 45.4796 42.1179 44.7864 42.6485 43.8903C43.179 42.9942 43.4451 41.9352 43.4451 40.7164C43.4451 39.5975 43.2298 38.6292 42.7992 37.8115C42.3686 36.9938 41.7842 36.3621 41.0445 35.9179ZM40.8077 43.6321C40.5278 44.313 40.1372 44.8478 39.6344 45.2352C39.1315 45.6225 38.5363 45.8162 37.8474 45.8162C37.4168 45.8162 37.0077 45.7378 36.6202 45.5795C36.2327 45.4211 35.9174 45.1383 35.6729 44.7295C35.4284 44.3207 35.3069 43.7366 35.3069 42.9758V37.5318C35.6375 37.1583 36.0358 36.8616 36.5018 36.6388C36.9678 36.4159 37.4383 36.3052 37.912 36.3052C38.6578 36.3052 39.276 36.5173 39.7635 36.94C40.251 37.3627 40.617 37.9437 40.8615 38.683C41.106 39.4223 41.2275 40.2784 41.2275 41.2544C41.2275 42.1581 41.0876 42.9512 40.8077 43.6321Z" fill="black"/>
<path d="M46.5238 30.689C46.2224 30.689 45.9533 30.8151 45.7164 31.0656C45.4796 31.3161 45.3612 31.622 45.3612 31.9801C45.3612 32.3382 45.4765 32.6395 45.7057 32.8839C45.9348 33.1283 46.2009 33.2497 46.5023 33.2497C46.8175 33.2497 47.0943 33.1283 47.3312 32.8839C47.568 32.6395 47.6864 32.3382 47.6864 31.9801C47.6864 31.622 47.5757 31.3161 47.3527 31.0656C47.1297 30.8151 46.8529 30.689 46.5238 30.689Z" fill="black"/>
<path d="M47.4711 45.5364C47.5142 45.292 47.5388 45.06 47.5465 44.8371C47.5541 44.6142 47.5572 44.3606 47.5572 44.0732V35.38H46.9329C46.8329 35.4799 46.693 35.5736 46.513 35.6597C46.3331 35.7458 46.0717 35.818 45.7272 35.8749C45.3827 35.9317 44.8952 35.9609 44.2632 35.9609V36.8647C44.5216 36.8509 44.7768 36.8355 45.0275 36.8217C45.2782 36.8078 45.5334 36.7925 45.7918 36.7786C45.7626 37.066 45.7411 37.3135 45.7272 37.521C45.7134 37.7285 45.7057 37.9483 45.7057 38.1773V43.0834C45.7057 43.5998 45.6918 44.0548 45.6626 44.4498C45.6334 44.8448 45.5334 45.1522 45.3612 45.375C45.189 45.5979 44.8799 45.7086 44.4354 45.7086V46.3541H48.8275V45.4719C48.5983 45.4857 48.3723 45.4965 48.1493 45.5041C47.9263 45.5118 47.7002 45.5226 47.4711 45.5364Z" fill="black"/>
<path d="M57.9022 35.9179C57.1625 35.4737 56.3336 35.2508 55.4155 35.2508C54.7558 35.2508 54.1483 35.3615 53.5963 35.5844C53.0442 35.8072 52.5659 36.1193 52.1645 36.5204V30.1081H51.5402C51.4402 30.208 51.3003 30.3017 51.1204 30.3878C50.9404 30.4739 50.6759 30.5461 50.3238 30.603C49.9716 30.6598 49.481 30.689 48.849 30.689V31.5928C49.1074 31.579 49.3626 31.5636 49.6133 31.5498C49.864 31.5359 50.1192 31.5206 50.3776 31.5067C50.3484 31.7941 50.3315 32.0416 50.3238 32.2491C50.3161 32.4566 50.313 32.6764 50.313 32.9054L50.2699 46.3541H51.0235L51.5402 45.3858C52 45.9022 52.5198 46.2496 53.1011 46.4294C53.6824 46.6092 54.2175 46.6984 54.705 46.6984C55.6816 46.6984 56.5919 46.454 57.4393 45.9668C58.2866 45.4796 58.9756 44.7864 59.5061 43.8903C60.0367 42.9942 60.3027 41.9352 60.3027 40.7164C60.3027 39.5975 60.0874 38.6292 59.6568 37.8115C59.2262 36.9938 58.6403 36.3621 57.9022 35.9179ZM57.6653 43.6321C57.3855 44.313 56.9949 44.8478 56.492 45.2352C55.9891 45.6225 55.394 45.8162 54.705 45.8162C54.2744 45.8162 53.8654 45.7378 53.4779 45.5795C53.0903 45.4211 52.7751 45.1383 52.5306 44.7295C52.286 44.3207 52.1645 43.7366 52.1645 42.9758V37.5318C52.4952 37.1583 52.8935 36.8616 53.3594 36.6388C53.8254 36.4159 54.296 36.3052 54.7696 36.3052C55.5155 36.3052 56.1337 36.5173 56.6212 36.94C57.1087 37.3627 57.4747 37.9437 57.7192 38.683C57.9637 39.4223 58.0852 40.2784 58.0852 41.2544C58.0852 42.1581 57.9452 42.9512 57.6653 43.6321Z" fill="black"/>
<path d="M64.1134 45.5364C64.1565 45.292 64.1857 45.06 64.1996 44.8371C64.2134 44.6142 64.2211 44.3606 64.2211 44.0732L64.1996 30.1081H63.5752C63.4752 30.208 63.3353 30.3017 63.1554 30.3878C62.9754 30.4739 62.7109 30.5461 62.3588 30.603C62.0066 30.6598 61.516 30.689 60.884 30.689V31.5928C61.1424 31.579 61.3976 31.5636 61.6483 31.5498C61.899 31.5359 62.1542 31.5206 62.4126 31.5067C62.3834 31.7941 62.3665 32.0416 62.3588 32.2491C62.3511 32.4566 62.348 32.6764 62.348 32.9054V43.0834C62.348 43.5998 62.3342 44.0548 62.305 44.4498C62.2757 44.8448 62.1758 45.1522 62.0035 45.375C61.8313 45.5979 61.5222 45.7086 61.0778 45.7086V46.3541H65.4698V45.4719C65.2407 45.4857 65.0146 45.4965 64.7916 45.5041C64.5686 45.5118 64.3426 45.5226 64.1134 45.5364Z" fill="black"/>
<path d="M69.3221 45.5364C69.3651 45.292 69.3897 45.06 69.3974 44.8371C69.4051 44.6142 69.4082 44.3606 69.4082 44.0732V35.38H68.7838C68.6839 35.4799 68.5439 35.5736 68.364 35.6597C68.1841 35.7458 67.9226 35.818 67.5782 35.8749C67.2337 35.9317 66.7462 35.9609 66.1142 35.9609V36.8647C66.3725 36.8509 66.6278 36.8355 66.8785 36.8217C67.1291 36.8078 67.3844 36.7925 67.6427 36.7786C67.6135 37.066 67.592 37.3135 67.5782 37.521C67.5643 37.7285 67.5566 37.9483 67.5566 38.1773V43.0834C67.5566 43.5998 67.5428 44.0548 67.5136 44.4498C67.4844 44.8448 67.3844 45.1522 67.2122 45.375C67.0399 45.5979 66.7308 45.7086 66.2864 45.7086V46.3541H70.6784V45.4719C70.4493 45.4857 70.2232 45.4965 70.0002 45.5041C69.7788 45.5118 69.5527 45.5226 69.3221 45.5364Z" fill="black"/>
<path d="M68.3532 33.2497C68.6685 33.2497 68.9453 33.1283 69.1821 32.8839C69.4189 32.6395 69.5373 32.3382 69.5373 31.9801C69.5373 31.622 69.4266 31.3161 69.2036 31.0656C68.9807 30.8151 68.7054 30.689 68.3748 30.689C68.0733 30.689 67.8042 30.8151 67.5674 31.0656C67.3306 31.3161 67.2122 31.622 67.2122 31.9801C67.2122 32.3382 67.3275 32.6395 67.5566 32.8839C67.7873 33.1283 68.0518 33.2497 68.3532 33.2497Z" fill="black"/>
<path d="M79.5486 35.9717C78.7305 35.4906 77.8185 35.2509 76.8143 35.2509C75.7948 35.2509 74.8767 35.5121 74.0586 36.0363C73.2404 36.5604 72.5945 37.2735 72.1209 38.1773C71.6472 39.081 71.4104 40.1001 71.4104 41.2328C71.4104 42.2949 71.6503 43.2371 72.1317 44.0625C72.613 44.8878 73.262 45.5334 74.0801 45.9991C74.8982 46.4648 75.8101 46.6984 76.8143 46.6984C77.8339 46.6984 78.752 46.4325 79.5701 45.9022C80.3882 45.372 81.0372 44.6511 81.5185 43.7397C81.9983 42.8282 82.2398 41.8215 82.2398 40.7164C82.2398 39.6697 81.9953 38.7368 81.5078 37.9191C81.0203 37.1014 80.3667 36.4528 79.5486 35.9717ZM79.7531 43.5137C79.5594 44.2023 79.2395 44.7618 78.795 45.1921C78.3506 45.6225 77.7478 45.8377 76.9866 45.8377C76.2254 45.8377 75.5948 45.5872 75.092 45.0846C74.5891 44.582 74.2169 43.9333 73.9724 43.1372C73.7279 42.341 73.6064 41.4987 73.6064 40.6088C73.6064 39.8203 73.7171 39.081 73.9401 38.3925C74.1631 37.7039 74.5107 37.1444 74.9843 36.7141C75.458 36.2837 76.0685 36.0685 76.8143 36.0685C77.3879 36.0685 77.88 36.2192 78.2891 36.5204C78.6982 36.8217 79.0319 37.2274 79.2902 37.7362C79.5486 38.2449 79.7393 38.8121 79.8608 39.4361C79.9822 40.0601 80.0438 40.6949 80.0438 41.3404C80.0438 42.1012 79.9469 42.8252 79.7531 43.5137Z" fill="black"/>
<path d="M89.9258 44.1808C89.6536 44.582 89.3415 44.8986 88.9893 45.1276C88.6371 45.3566 88.2604 45.4719 87.859 45.4719C87.4715 45.4719 87.1562 45.3566 86.9117 45.1276C86.6672 44.8986 86.4919 44.5574 86.3842 44.1055C86.2766 43.6536 86.2228 43.1049 86.2228 42.4594L86.2658 36.4774L89.8828 36.4343V35.5951H86.2658V32.5826H85.5338C85.4185 33.1283 85.2078 33.6293 84.8987 34.0889C84.5896 34.5484 84.242 34.9096 83.8545 35.1755C83.467 35.4414 83.0871 35.5813 82.7134 35.5951V36.5204L84.3712 36.4989L84.3282 42.7391C84.3282 43.5998 84.4143 44.2915 84.5865 44.8156C84.7587 45.3397 84.9925 45.7378 85.2862 46.0098C85.5799 46.2819 85.8998 46.4648 86.2443 46.5585C86.5888 46.6523 86.9255 46.6984 87.2562 46.6984C87.4284 46.6984 87.636 46.68 87.8805 46.6446C88.125 46.6093 88.3895 46.5232 88.6771 46.3864C88.9647 46.2496 89.2615 46.0452 89.5706 45.7731C89.8797 45.5011 90.1919 45.1276 90.5071 44.6542L89.9258 44.1808Z" fill="black"/>
<path d="M100.626 45.5364C100.669 45.292 100.694 45.06 100.701 44.8371C100.709 44.6142 100.712 44.3606 100.712 44.0732L100.691 40.0709C100.677 38.4217 100.392 37.2059 99.8402 36.4236C99.2881 35.6412 98.387 35.2508 97.1382 35.2508C96.7369 35.2508 96.3232 35.3154 95.9003 35.4445C95.4774 35.5736 95.0683 35.7427 94.6731 35.9502C94.2779 36.1577 93.9226 36.399 93.6074 36.671V30.1081H92.983C92.8831 30.208 92.7431 30.3017 92.5632 30.3878C92.3833 30.4739 92.1188 30.5461 91.7666 30.603C91.4145 30.6598 90.9239 30.689 90.2918 30.689V31.5928C90.5502 31.579 90.8055 31.5636 91.0561 31.5498C91.3068 31.5359 91.5621 31.5206 91.8204 31.5067C91.7912 31.7941 91.7743 32.0416 91.7666 32.2491C91.7589 32.4566 91.7559 32.6764 91.7559 32.9054V43.0834C91.7559 43.5998 91.7374 44.0548 91.702 44.4498C91.6667 44.8448 91.5621 45.1522 91.3898 45.375C91.2176 45.5979 90.9085 45.7086 90.4641 45.7086V46.3541H94.8561V45.4719C94.627 45.4857 94.4009 45.4965 94.1779 45.5041C93.9549 45.5118 93.7289 45.5226 93.4997 45.5364C93.5428 45.292 93.572 45.06 93.5859 44.8371C93.5997 44.6142 93.6074 44.3606 93.6074 44.0732V37.7254C93.9226 37.3381 94.3363 37.023 94.8453 36.7786C95.3544 36.5342 95.8757 36.4051 96.4062 36.3913C97.2536 36.3775 97.8733 36.6787 98.2685 37.2951C98.6638 37.9114 98.8606 38.8367 98.8606 40.0709V43.0834C98.8606 43.5998 98.8468 44.0548 98.8175 44.4498C98.7883 44.8448 98.6884 45.1522 98.5161 45.375C98.3439 45.5979 98.0348 45.7086 97.5904 45.7086V46.3541H101.982V45.4719C101.753 45.4857 101.527 45.4965 101.304 45.5041C101.081 45.5118 100.855 45.5226 100.626 45.5364Z" fill="black"/>
<path d="M106.525 31.5928L108.936 33.8737L109.539 33.3788L107.731 30.4739C107.529 30.1434 107.329 29.9544 107.128 29.9036C106.926 29.8529 106.754 29.8606 106.611 29.9252C106.468 29.9897 106.374 30.0358 106.331 30.065C106.274 30.1081 106.205 30.2018 106.127 30.3448C106.048 30.4877 106.027 30.6675 106.062 30.8827C106.098 31.0979 106.253 31.3346 106.525 31.5928Z" fill="black"/>
<path d="M111.111 44.7187C110.71 44.9908 110.274 45.206 109.808 45.3643C109.342 45.5226 108.886 45.601 108.441 45.601C107.609 45.601 106.926 45.375 106.396 44.9232C105.865 44.4713 105.481 43.8334 105.244 43.0081C105.007 42.1827 104.889 41.2252 104.889 40.1354L112.467 40.0063C112.467 39.2025 112.352 38.5031 112.123 37.9083C111.894 37.3135 111.577 36.8186 111.175 36.4236C110.774 36.0286 110.311 35.735 109.787 35.5413C109.262 35.3477 108.7 35.2509 108.097 35.2509C107.02 35.2509 106.073 35.5198 105.255 36.0578C104.437 36.5957 103.802 37.3027 103.35 38.1773C102.897 39.0518 102.671 39.9925 102.671 40.9961C102.671 42.1581 102.9 43.1664 103.36 44.0194C103.82 44.8725 104.448 45.5334 105.244 45.9991C106.041 46.4648 106.934 46.6984 107.925 46.6984C108.412 46.6984 108.944 46.62 109.518 46.4617C110.091 46.3034 110.651 46.0452 111.197 45.6871C111.743 45.3289 112.209 44.8479 112.596 44.2454L112.08 43.815C111.835 44.1454 111.512 44.4467 111.111 44.7187ZM106.041 36.8324C106.593 36.3375 107.286 36.0901 108.118 36.0901C108.678 36.0901 109.13 36.2438 109.475 36.5527C109.819 36.8616 110.067 37.2551 110.217 37.7362C110.368 38.2173 110.443 38.7152 110.443 39.2317H104.953C105.126 38.1266 105.489 37.3273 106.041 36.8324Z" fill="black"/>
<path d="M123.297 51.0235C123.34 50.7791 123.364 50.547 123.372 50.3242C123.38 50.1013 123.383 49.8477 123.383 49.5603L123.361 35.38H122.758C122.643 35.5091 122.518 35.5982 122.382 35.6489C122.245 35.6997 122.099 35.7242 121.94 35.7242C121.582 35.7242 121.154 35.6459 120.659 35.4876C120.164 35.3292 119.615 35.2509 119.012 35.2509C117.993 35.2509 117.064 35.4983 116.224 35.9932C115.385 36.4881 114.717 37.1798 114.222 38.0697C113.727 38.9596 113.479 40.0063 113.479 41.2113C113.479 42.3164 113.694 43.2801 114.125 44.1055C114.556 44.9309 115.137 45.5687 115.869 46.0206C116.601 46.4725 117.411 46.6984 118.302 46.6984C118.991 46.6984 119.607 46.5801 120.153 46.3434C120.699 46.1067 121.158 45.7731 121.531 45.3428V48.5705C121.531 49.0869 121.517 49.5418 121.488 49.9368C121.459 50.3319 121.359 50.6393 121.187 50.8621C121.014 51.085 120.705 51.1956 120.261 51.1956V51.8412H124.653V50.959C124.424 50.9728 124.198 50.9835 123.975 50.9912C123.752 50.9974 123.526 51.0081 123.297 51.0235ZM121.531 44.2669C121.244 44.668 120.882 44.9985 120.444 45.2567C120.006 45.5149 119.55 45.644 119.077 45.644C118.374 45.644 117.767 45.4212 117.258 44.977C116.749 44.5328 116.361 43.9364 116.095 43.191C115.829 42.4455 115.697 41.6125 115.697 40.6949C115.697 39.7619 115.834 38.9489 116.106 38.2526C116.378 37.5563 116.765 37.0153 117.268 36.628C117.771 36.2407 118.366 36.047 119.055 36.047C119.672 36.047 120.161 36.1438 120.519 36.3375C120.878 36.5312 121.136 36.8186 121.294 37.1982C121.453 37.5779 121.531 38.0559 121.531 38.6292V44.2669Z" fill="black"/>
<path d="M134.793 45.5364C134.823 45.249 134.844 44.8986 134.858 44.482C134.872 44.0655 134.88 43.7428 134.88 43.5137L134.901 35.38H134.277C134.118 35.5229 133.9 35.6566 133.62 35.778C133.34 35.8995 132.891 35.9609 132.274 35.9609H131.607V36.8432C131.865 36.8293 132.124 36.8186 132.382 36.8109C132.64 36.8032 132.899 36.7925 133.157 36.7786C133.114 37.023 133.085 37.2705 133.071 37.521C133.057 37.7715 133.05 38.0697 133.05 38.414V43.9441C132.748 44.3883 132.35 44.7725 131.855 45.0953C131.359 45.4181 130.84 45.5871 130.294 45.601C129.446 45.6148 128.848 45.3182 128.496 44.708C128.144 44.0978 127.969 43.1771 127.969 41.9429V35.38H127.344C127.186 35.5229 126.967 35.6566 126.688 35.778C126.408 35.8995 125.959 35.9609 125.342 35.9609H124.675V36.8432C124.919 36.8293 125.167 36.8186 125.417 36.8109C125.668 36.8032 125.916 36.7925 126.16 36.7786C126.117 37.023 126.092 37.2597 126.085 37.4887C126.077 37.7177 126.074 37.9483 126.074 38.1773V42.0075C126.074 43.1833 126.206 44.1162 126.472 44.8048C126.738 45.4934 127.132 45.9806 127.656 46.268C128.181 46.5555 128.83 46.6984 129.605 46.6984C130.237 46.6984 130.867 46.537 131.499 46.2142C132.131 45.8915 132.67 45.5072 133.114 45.063C133.128 45.249 133.146 45.4504 133.168 45.6655C133.189 45.8807 133.222 46.1097 133.265 46.3541H136.344V45.4504C136.085 45.4642 135.827 45.4796 135.568 45.4934C135.31 45.5072 135.052 45.5226 134.793 45.5364Z" fill="black"/>
<path d="M145.451 44.7187C145.049 44.9908 144.614 45.206 144.148 45.3643C143.682 45.5226 143.225 45.601 142.781 45.601C141.949 45.601 141.266 45.375 140.736 44.9232C140.205 44.4713 139.821 43.8334 139.584 43.0081C139.347 42.1827 139.228 41.2252 139.228 40.1354L146.807 40.0063C146.807 39.2025 146.692 38.5031 146.462 37.9083C146.233 37.3135 145.916 36.8186 145.515 36.4236C145.114 36.0286 144.651 35.735 144.126 35.5413C143.602 35.3477 143.039 35.2509 142.436 35.2509C141.36 35.2509 140.413 35.5198 139.594 36.0578C138.776 36.5957 138.141 37.3027 137.689 38.1773C137.237 39.0518 137.011 39.9925 137.011 40.9961C137.011 42.1581 137.24 43.1664 137.7 44.0194C138.16 44.8725 138.787 45.5334 139.584 45.9991C140.38 46.4648 141.274 46.6984 142.264 46.6984C142.752 46.6984 143.284 46.62 143.857 46.4617C144.431 46.3034 144.991 46.0452 145.537 45.6871C146.083 45.3289 146.549 44.8479 146.936 44.2454L146.419 43.815C146.175 44.1454 145.852 44.4467 145.451 44.7187ZM140.38 36.8324C140.932 36.3375 141.626 36.0901 142.458 36.0901C143.018 36.0901 143.47 36.2438 143.814 36.5527C144.159 36.8616 144.406 37.2551 144.557 37.7362C144.708 38.2173 144.783 38.7152 144.783 39.2317H139.293C139.465 38.1266 139.827 37.3273 140.38 36.8324Z" fill="black"/>
<path d="M155.505 41.9537C155.174 41.5449 154.751 41.2036 154.235 40.9316C153.718 40.6595 153.187 40.4075 152.641 40.1785C152.139 39.9771 151.665 39.7696 151.22 39.5544C150.776 39.3393 150.413 39.0841 150.133 38.7906C149.853 38.497 149.713 38.1266 149.713 37.6824C149.713 37.252 149.899 36.8724 150.273 36.5419C150.647 36.2115 151.164 36.047 151.823 36.047C152.44 36.047 152.943 36.2007 153.33 36.5097C153.718 36.8186 154.012 37.2059 154.213 37.6716C154.414 38.1373 154.528 38.6215 154.558 39.1241H155.246V35.3584H154.342L154.385 36.1761C153.941 35.818 153.481 35.5736 153.007 35.4445C152.534 35.3154 152.103 35.2509 151.716 35.2509C150.984 35.2509 150.381 35.3554 149.907 35.5629C149.433 35.7704 149.06 36.0363 148.788 36.359C148.515 36.6818 148.322 37.023 148.206 37.3811C148.091 37.7393 148.034 38.0697 148.034 38.371C148.034 38.9166 148.142 39.3746 148.357 39.7481C148.572 40.1216 148.863 40.4367 149.229 40.6949C149.595 40.9531 149.993 41.176 150.424 41.362C150.854 41.5479 151.285 41.7278 151.716 41.8999C152.16 42.072 152.577 42.258 152.964 42.4594C153.352 42.6607 153.664 42.8928 153.901 43.1587C154.138 43.4246 154.256 43.7581 154.256 44.1593C154.256 44.5466 154.135 44.8663 153.89 45.1168C153.646 45.3674 153.344 45.5549 152.986 45.6763C152.628 45.7977 152.262 45.8592 151.888 45.8592C151.342 45.8592 150.833 45.7301 150.359 45.4719C149.886 45.2137 149.498 44.8509 149.197 44.3852C148.895 43.9195 148.731 43.3923 148.701 42.8037H148.034L148.163 46.5047H149.067L148.981 45.7516C149.34 45.996 149.799 46.2142 150.359 46.4079C150.919 46.6016 151.557 46.6984 152.275 46.6984C152.892 46.6984 153.484 46.5877 154.052 46.3649C154.619 46.142 155.085 45.7946 155.451 45.3213C155.817 44.8479 156 44.253 156 43.5353C156 42.8897 155.834 42.3625 155.505 41.9537Z" fill="black"/>
<line x1="168.5" y1="13" x2="168.5" y2="48" stroke="#37424D"/>
<path d="M186.192 38.788C185.024 38.788 184.12 38.484 183.48 37.876C182.84 37.268 182.52 36.412 182.52 35.308V22.756H184.44V35.116C184.44 35.724 184.6 36.196 184.92 36.532C185.256 36.852 185.72 37.012 186.312 37.012C186.504 37.012 186.688 36.988 186.864 36.94C187.056 36.876 187.304 36.732 187.608 36.508L188.352 38.068C187.936 38.34 187.56 38.524 187.224 38.62C186.888 38.732 186.544 38.788 186.192 38.788ZM180.432 28.204V26.5H188.04V28.204H180.432ZM196.176 38.788C195.008 38.788 193.976 38.524 193.08 37.996C192.184 37.452 191.48 36.708 190.968 35.764C190.472 34.82 190.224 33.732 190.224 32.5C190.224 31.268 190.472 30.18 190.968 29.236C191.48 28.292 192.176 27.556 193.056 27.028C193.952 26.484 194.976 26.212 196.128 26.212C197.248 26.212 198.216 26.492 199.032 27.052C199.848 27.596 200.48 28.364 200.928 29.356C201.376 30.348 201.6 31.516 201.6 32.86H191.688L192.168 32.452C192.168 33.412 192.336 34.236 192.672 34.924C193.024 35.612 193.512 36.14 194.136 36.508C194.76 36.86 195.472 37.036 196.272 37.036C197.12 37.036 197.832 36.836 198.408 36.436C199 36.036 199.456 35.508 199.776 34.852L201.432 35.692C201.128 36.316 200.72 36.86 200.208 37.324C199.712 37.788 199.12 38.148 198.432 38.404C197.76 38.66 197.008 38.788 196.176 38.788ZM192.288 31.636L191.784 31.252H200.064L199.56 31.66C199.56 30.892 199.408 30.228 199.104 29.668C198.8 29.108 198.392 28.676 197.88 28.372C197.368 28.068 196.776 27.916 196.104 27.916C195.448 27.916 194.824 28.068 194.232 28.372C193.656 28.676 193.184 29.108 192.816 29.668C192.464 30.212 192.288 30.868 192.288 31.636ZM209.614 38.788C208.43 38.788 207.382 38.524 206.47 37.996C205.558 37.452 204.846 36.708 204.334 35.764C203.822 34.82 203.566 33.732 203.566 32.5C203.566 31.268 203.814 30.18 204.31 29.236C204.822 28.292 205.534 27.556 206.446 27.028C207.358 26.484 208.398 26.212 209.566 26.212C210.718 26.212 211.75 26.476 212.662 27.004C213.574 27.532 214.27 28.276 214.75 29.236L212.998 30.028C212.678 29.388 212.214 28.892 211.606 28.54C210.998 28.172 210.302 27.988 209.518 27.988C208.734 27.988 208.038 28.18 207.43 28.564C206.838 28.948 206.366 29.484 206.014 30.172C205.678 30.844 205.51 31.62 205.51 32.5C205.51 33.38 205.678 34.164 206.014 34.852C206.366 35.524 206.846 36.052 207.454 36.436C208.078 36.82 208.782 37.012 209.566 37.012C210.35 37.012 211.046 36.812 211.654 36.412C212.278 36.012 212.75 35.452 213.07 34.732L214.822 35.524C214.342 36.548 213.646 37.348 212.734 37.924C211.822 38.5 210.782 38.788 209.614 38.788ZM217.486 38.5V21.7H219.406V38.5H217.486ZM225.934 38.5V32.356H227.854V38.5H225.934ZM225.934 32.356C225.934 31.172 225.79 30.268 225.502 29.644C225.23 29.02 224.854 28.596 224.374 28.372C223.894 28.132 223.35 28.012 222.742 28.012C221.686 28.012 220.862 28.388 220.27 29.14C219.694 29.876 219.406 30.924 219.406 32.284H218.47C218.47 31.02 218.654 29.932 219.022 29.02C219.406 28.108 219.95 27.412 220.654 26.932C221.358 26.452 222.206 26.212 223.198 26.212C224.126 26.212 224.942 26.404 225.646 26.788C226.35 27.156 226.894 27.748 227.278 28.564C227.678 29.38 227.87 30.452 227.854 31.78V32.356H225.934ZM231.109 38.5V26.5H232.909L233.029 28.708V38.5H231.109ZM239.533 38.5V32.356H241.453V38.5H239.533ZM239.533 32.356C239.533 31.172 239.397 30.268 239.125 29.644C238.853 29.02 238.477 28.596 237.997 28.372C237.517 28.132 236.973 28.012 236.365 28.012C235.309 28.012 234.485 28.388 233.893 29.14C233.317 29.876 233.029 30.924 233.029 32.284H232.093C232.093 31.02 232.277 29.932 232.645 29.02C233.013 28.108 233.549 27.412 234.253 26.932C234.957 26.452 235.805 26.212 236.797 26.212C237.741 26.212 238.557 26.404 239.245 26.788C239.949 27.156 240.493 27.748 240.877 28.564C241.277 29.38 241.469 30.452 241.453 31.78V32.356H239.533ZM250.036 38.788C248.868 38.788 247.828 38.524 246.916 37.996C246.02 37.452 245.316 36.708 244.804 35.764C244.292 34.82 244.036 33.732 244.036 32.5C244.036 31.268 244.284 30.18 244.78 29.236C245.292 28.292 245.996 27.556 246.892 27.028C247.804 26.484 248.836 26.212 249.988 26.212C251.172 26.212 252.212 26.484 253.108 27.028C254.02 27.556 254.724 28.292 255.22 29.236C255.732 30.18 255.988 31.268 255.988 32.5C255.988 33.732 255.732 34.82 255.22 35.764C254.724 36.708 254.028 37.452 253.132 37.996C252.236 38.524 251.204 38.788 250.036 38.788ZM250.036 37.012C250.836 37.012 251.532 36.82 252.124 36.436C252.716 36.052 253.18 35.524 253.516 34.852C253.868 34.18 254.044 33.396 254.044 32.5C254.044 31.604 253.868 30.82 253.516 30.148C253.18 29.476 252.708 28.948 252.1 28.564C251.492 28.18 250.788 27.988 249.988 27.988C249.204 27.988 248.508 28.18 247.9 28.564C247.308 28.948 246.836 29.476 246.484 30.148C246.148 30.82 245.98 31.604 245.98 32.5C245.98 33.38 246.148 34.164 246.484 34.852C246.836 35.524 247.316 36.052 247.924 36.436C248.548 36.82 249.252 37.012 250.036 37.012Z" fill="black"/>
<circle cx="2.5" cy="2.5" r="2.5" transform="matrix(-1 0 0 1 266 28)" fill="#FFCA40"/>
<path d="M271.488 38.5V21.7H274.176V36.268L274.032 38.5H271.488ZM277.968 38.788C276.96 38.788 276.088 38.532 275.352 38.02C274.632 37.492 274.08 36.756 273.696 35.812C273.312 34.868 273.12 33.764 273.12 32.5C273.12 31.22 273.312 30.116 273.696 29.188C274.08 28.244 274.632 27.516 275.352 27.004C276.088 26.476 276.96 26.212 277.968 26.212C279.056 26.212 280 26.476 280.8 27.004C281.616 27.516 282.248 28.244 282.696 29.188C283.16 30.116 283.392 31.22 283.392 32.5C283.392 33.764 283.16 34.868 282.696 35.812C282.248 36.756 281.616 37.492 280.8 38.02C280 38.532 279.056 38.788 277.968 38.788ZM277.296 36.34C277.936 36.34 278.504 36.18 279 35.86C279.496 35.524 279.888 35.068 280.176 34.492C280.48 33.916 280.632 33.252 280.632 32.5C280.632 31.748 280.488 31.084 280.2 30.508C279.928 29.932 279.544 29.484 279.048 29.164C278.552 28.844 277.976 28.684 277.32 28.684C276.712 28.684 276.168 28.844 275.688 29.164C275.208 29.484 274.832 29.932 274.56 30.508C274.304 31.084 274.176 31.748 274.176 32.5C274.176 33.252 274.304 33.916 274.56 34.492C274.832 35.068 275.2 35.524 275.664 35.86C276.144 36.18 276.688 36.34 277.296 36.34ZM286.099 38.5V26.5H288.763V38.5H286.099ZM287.443 24.22C287.011 24.22 286.635 24.068 286.315 23.764C286.011 23.444 285.859 23.068 285.859 22.636C285.859 22.204 286.011 21.836 286.315 21.532C286.635 21.228 287.011 21.076 287.443 21.076C287.875 21.076 288.243 21.228 288.547 21.532C288.867 21.836 289.027 22.204 289.027 22.636C289.027 23.068 288.867 23.444 288.547 23.764C288.243 24.068 287.875 24.22 287.443 24.22ZM292.171 38.5V21.7H294.859V36.268L294.715 38.5H292.171ZM298.651 38.788C297.643 38.788 296.771 38.532 296.035 38.02C295.315 37.492 294.763 36.756 294.379 35.812C293.995 34.868 293.803 33.764 293.803 32.5C293.803 31.22 293.995 30.116 294.379 29.188C294.763 28.244 295.315 27.516 296.035 27.004C296.771 26.476 297.643 26.212 298.651 26.212C299.739 26.212 300.683 26.476 301.483 27.004C302.299 27.516 302.931 28.244 303.379 29.188C303.843 30.116 304.075 31.22 304.075 32.5C304.075 33.764 303.843 34.868 303.379 35.812C302.931 36.756 302.299 37.492 301.483 38.02C300.683 38.532 299.739 38.788 298.651 38.788ZM297.979 36.34C298.619 36.34 299.187 36.18 299.683 35.86C300.179 35.524 300.571 35.068 300.859 34.492C301.163 33.916 301.315 33.252 301.315 32.5C301.315 31.748 301.171 31.084 300.883 30.508C300.611 29.932 300.227 29.484 299.731 29.164C299.235 28.844 298.659 28.684 298.003 28.684C297.395 28.684 296.851 28.844 296.371 29.164C295.891 29.484 295.515 29.932 295.243 30.508C294.987 31.084 294.859 31.748 294.859 32.5C294.859 33.252 294.987 33.916 295.243 34.492C295.515 35.068 295.883 35.524 296.347 35.86C296.827 36.18 297.371 36.34 297.979 36.34Z" fill="black"/>
</svg>
